<svg width="315" height="194" viewBox="0 0 315 194" fill="none" xmlns="http://www.w3.org/2000/svg">
<rect width="315" height="194" fill="white"/>
<g filter="url(#filter0_d_1_4)">
<mask id="path-2-inside-1_1_4" fill="white">
<path d="M130.792 103.18C129.328 103.18 127.984 103.084 126.76 102.892C125.56 102.676 124.504 102.28 123.592 101.704C122.68 101.104 121.936 100.264 121.36 99.184C120.808 98.08 120.424 96.64 120.208 94.864L124.132 92.92C124.324 93.976 124.6 94.828 124.96 95.476C125.32 96.1 125.776 96.58 126.328 96.916C126.904 97.228 127.588 97.432 128.38 97.528C129.172 97.624 130.096 97.672 131.152 97.672C132.16 97.672 132.88 97.936 133.312 98.464C133.768 98.968 133.996 99.604 133.996 100.372C133.996 101.188 133.72 101.86 133.168 102.388C132.64 102.916 131.848 103.18 130.792 103.18ZM117.58 117.184C115.708 117.184 113.968 116.944 112.36 116.464C110.752 115.984 109.36 115.276 108.184 114.34C107.008 113.404 106.084 112.24 105.412 110.848C104.764 109.48 104.44 107.908 104.44 106.132C104.44 104.404 104.716 102.832 105.268 101.416C105.82 100 106.576 98.728 107.536 97.6C108.52 96.448 109.66 95.44 110.956 94.576C112.276 93.688 113.704 92.956 115.24 92.38C116.8 91.78 118.42 91.324 120.1 91.012L120.316 91.696C119.764 91.528 119.128 91.348 118.408 91.156C117.688 90.94 116.908 90.748 116.068 90.58C115.228 90.388 114.34 90.232 113.404 90.112C112.492 89.968 111.532 89.896 110.524 89.896C109.612 89.896 108.748 89.956 107.932 90.076C107.116 90.172 106.396 90.292 105.772 90.436L104.98 84.892C105.676 84.7 106.432 84.532 107.248 84.388C108.064 84.244 108.916 84.172 109.804 84.172C111.196 84.172 112.468 84.292 113.62 84.532C114.796 84.748 115.876 85.036 116.86 85.396C117.868 85.732 118.816 86.08 119.704 86.44C120.616 86.776 121.492 87.064 122.332 87.304C123.172 87.544 124.012 87.664 124.852 87.664H126.472L127.084 93.748C126.244 93.748 125.248 93.868 124.096 94.108C122.944 94.324 121.732 94.66 120.46 95.116C119.188 95.548 117.94 96.1 116.716 96.772C115.492 97.42 114.376 98.176 113.368 99.04C112.384 99.904 111.592 100.864 110.992 101.92C110.416 102.952 110.128 104.08 110.128 105.304C110.128 106.456 110.332 107.416 110.74 108.184C111.148 108.976 111.712 109.612 112.432 110.092C113.152 110.596 113.992 110.956 114.952 111.172C115.912 111.412 116.956 111.532 118.084 111.532C119.428 111.532 120.796 111.388 122.188 111.1C123.604 110.812 125.02 110.392 126.436 109.84L128.056 114.808C126.208 115.648 124.372 116.248 122.548 116.608C120.748 116.992 119.092 117.184 117.58 117.184ZM130.789 103.18L131.149 97.672C132.085 97.672 132.865 97.6 133.489 97.456C134.113 97.288 134.629 96.952 135.037 96.448C135.445 95.92 135.781 95.152 136.045 94.144C136.333 93.112 136.585 91.744 136.801 90.04L142.093 90.904C142.045 91.264 141.985 91.672 141.913 92.128C141.841 92.584 141.781 93.052 141.733 93.532C141.685 94.012 141.661 94.48 141.661 94.936C141.661 95.392 141.733 95.788 141.877 96.124C142.045 96.46 142.309 96.748 142.669 96.988C143.029 97.228 143.521 97.408 144.145 97.528C144.769 97.624 145.549 97.672 146.485 97.672C147.493 97.672 148.213 97.936 148.645 98.464C149.101 98.968 149.329 99.604 149.329 100.372C149.329 101.188 149.053 101.86 148.501 102.388C147.973 102.916 147.181 103.18 146.125 103.18C144.853 103.18 143.749 103.084 142.813 102.892C141.877 102.7 141.085 102.388 140.437 101.956C139.789 101.5 139.273 100.936 138.889 100.264C138.529 99.568 138.301 98.728 138.205 97.744H140.113C139.681 98.968 139.129 99.952 138.457 100.696C137.785 101.44 137.029 101.992 136.189 102.352C135.349 102.688 134.461 102.904 133.525 103C132.613 103.12 131.701 103.18 130.789 103.18ZM141.193 111.532C140.473 111.532 139.861 111.28 139.357 110.776C138.877 110.296 138.637 109.696 138.637 108.976C138.637 108.256 138.877 107.644 139.357 107.14C139.861 106.636 140.473 106.384 141.193 106.384C141.913 106.384 142.513 106.636 142.993 107.14C143.497 107.644 143.749 108.256 143.749 108.976C143.749 109.696 143.497 110.296 142.993 110.776C142.513 111.28 141.913 111.532 141.193 111.532ZM134.893 111.532C134.173 111.532 133.561 111.28 133.057 110.776C132.553 110.296 132.301 109.696 132.301 108.976C132.301 108.256 132.553 107.644 133.057 107.14C133.561 106.636 134.173 106.384 134.893 106.384C135.589 106.384 136.189 106.636 136.693 107.14C137.197 107.644 137.449 108.256 137.449 108.976C137.449 109.696 137.197 110.296 136.693 110.776C136.189 111.28 135.589 111.532 134.893 111.532ZM146.117 103.18L146.477 97.672C147.341 97.672 148.037 97.6 148.565 97.456C149.117 97.288 149.561 96.952 149.897 96.448C150.233 95.92 150.509 95.152 150.725 94.144C150.965 93.112 151.193 91.744 151.409 90.04L156.701 90.904C156.653 91.264 156.593 91.672 156.521 92.128C156.449 92.584 156.389 93.052 156.341 93.532C156.293 94.012 156.269 94.48 156.269 94.936C156.269 95.536 156.389 96.04 156.629 96.448C156.893 96.856 157.349 97.168 157.997 97.384C158.645 97.576 159.557 97.672 160.733 97.672C161.765 97.672 162.497 97.936 162.929 98.464C163.361 98.968 163.577 99.604 163.577 100.372C163.577 101.188 163.301 101.86 162.749 102.388C162.221 102.916 161.429 103.18 160.373 103.18C158.693 103.18 157.313 103 156.233 102.64C155.153 102.28 154.349 101.704 153.821 100.912C153.293 100.12 152.957 99.064 152.813 97.744H154.721C154.289 98.968 153.761 99.952 153.137 100.696C152.513 101.44 151.817 101.992 151.049 102.352C150.281 102.688 149.477 102.904 148.637 103C147.797 103.12 146.957 103.18 146.117 103.18ZM152.597 111.748C151.829 111.748 151.181 111.484 150.653 110.956C150.125 110.452 149.861 109.828 149.861 109.084C149.861 108.316 150.125 107.656 150.653 107.104C151.181 106.552 151.829 106.276 152.597 106.276C153.341 106.276 153.977 106.552 154.505 107.104C155.033 107.656 155.297 108.316 155.297 109.084C155.297 109.828 155.033 110.452 154.505 110.956C153.977 111.484 153.341 111.748 152.597 111.748ZM160.391 103.18L160.751 97.672C161.543 97.672 162.191 97.6 162.695 97.456C163.223 97.312 163.643 97 163.955 96.52C164.267 96.04 164.543 95.32 164.783 94.36C165.047 93.4 165.323 92.092 165.611 90.436L170.867 91.336C170.795 91.84 170.687 92.488 170.543 93.28C170.399 94.048 170.327 94.732 170.327 95.332C170.327 95.812 170.411 96.232 170.579 96.592C170.747 96.928 171.047 97.192 171.479 97.384C171.935 97.576 172.559 97.672 173.351 97.672C173.999 97.672 174.551 97.6 175.007 97.456C175.463 97.312 175.847 97 176.159 96.52C176.471 96.04 176.747 95.296 176.987 94.288C177.227 93.28 177.455 91.912 177.671 90.184L183.035 91.012C182.915 91.612 182.807 92.224 182.711 92.848C182.615 93.472 182.531 94.048 182.459 94.576C182.387 95.08 182.351 95.5 182.351 95.836C182.351 96.148 182.447 96.448 182.639 96.736C182.831 97.024 183.167 97.252 183.647 97.42C184.151 97.588 184.847 97.672 185.735 97.672C186.863 97.672 187.655 97.432 188.111 96.952C188.591 96.472 188.831 95.728 188.831 94.72C188.831 94.192 188.819 93.604 188.795 92.956C188.771 92.308 188.723 91.576 188.651 90.76C188.603 89.944 188.507 89.008 188.363 87.952L193.619 87.556C193.787 89.692 193.979 91.432 194.195 92.776C194.435 94.096 194.735 95.116 195.095 95.836C195.479 96.556 195.983 97.048 196.607 97.312C197.231 97.552 198.035 97.672 199.019 97.672C200.051 97.672 200.783 97.936 201.215 98.464C201.671 98.968 201.899 99.604 201.899 100.372C201.899 101.188 201.623 101.86 201.071 102.388C200.543 102.916 199.739 103.18 198.659 103.18C198.083 103.18 197.447 103.12 196.751 103C196.079 102.904 195.395 102.7 194.699 102.388C194.027 102.052 193.403 101.572 192.827 100.948C192.275 100.3 191.819 99.424 191.459 98.32L192.107 98.536C191.771 99.688 191.315 100.6 190.739 101.272C190.163 101.944 189.443 102.436 188.579 102.748C187.715 103.036 186.647 103.18 185.375 103.18C184.271 103.18 183.275 103.024 182.387 102.712C181.499 102.4 180.791 101.896 180.263 101.2C179.759 100.48 179.507 99.52 179.507 98.32H180.731C180.227 99.736 179.651 100.804 179.003 101.524C178.379 102.22 177.611 102.676 176.699 102.892C175.811 103.084 174.671 103.18 173.279 103.18C172.391 103.18 171.515 103.072 170.651 102.856C169.811 102.64 169.055 102.184 168.383 101.488C167.711 100.792 167.195 99.724 166.835 98.284L169.067 98.248C168.515 99.64 167.807 100.684 166.943 101.38C166.079 102.076 165.095 102.556 163.991 102.82C162.911 103.06 161.711 103.18 160.391 103.18ZM198.711 103.18L199.071 97.672C200.535 97.672 201.663 97.588 202.455 97.42C203.247 97.228 203.787 96.928 204.075 96.52C204.363 96.088 204.507 95.524 204.507 94.828C204.507 94.108 204.411 93.28 204.219 92.344C204.051 91.384 203.823 90.4 203.535 89.392C203.271 88.384 202.995 87.46 202.707 86.62L208.071 85.18C208.359 85.996 208.659 86.956 208.971 88.06C209.283 89.14 209.535 90.268 209.727 91.444C209.943 92.62 210.051 93.784 210.051 94.936C210.051 96.688 209.751 98.116 209.151 99.22C208.575 100.3 207.771 101.128 206.739 101.704C205.707 102.28 204.507 102.676 203.139 102.892C201.771 103.084 200.295 103.18 198.711 103.18ZM208.827 82.048C208.107 82.048 207.495 81.796 206.991 81.292C206.511 80.788 206.271 80.188 206.271 79.492C206.271 78.772 206.511 78.16 206.991 77.656C207.495 77.152 208.107 76.9 208.827 76.9C209.523 76.9 210.123 77.152 210.627 77.656C211.131 78.16 211.383 78.772 211.383 79.492C211.383 80.188 211.131 80.788 210.627 81.292C210.123 81.796 209.523 82.048 208.827 82.048ZM202.491 82.012C201.771 82.012 201.159 81.76 200.655 81.256C200.175 80.752 199.935 80.152 199.935 79.456C199.935 78.736 200.175 78.124 200.655 77.62C201.159 77.116 201.771 76.864 202.491 76.864C203.187 76.864 203.787 77.116 204.291 77.62C204.795 78.124 205.047 78.736 205.047 79.456C205.047 80.152 204.795 80.752 204.291 81.256C203.787 81.76 203.187 82.012 202.491 82.012Z"/>
</mask>
<path d="M130.792 103.18C129.328 103.18 127.984 103.084 126.76 102.892C125.56 102.676 124.504 102.28 123.592 101.704C122.68 101.104 121.936 100.264 121.36 99.184C120.808 98.08 120.424 96.64 120.208 94.864L124.132 92.92C124.324 93.976 124.6 94.828 124.96 95.476C125.32 96.1 125.776 96.58 126.328 96.916C126.904 97.228 127.588 97.432 128.38 97.528C129.172 97.624 130.096 97.672 131.152 97.672C132.16 97.672 132.88 97.936 133.312 98.464C133.768 98.968 133.996 99.604 133.996 100.372C133.996 101.188 133.72 101.86 133.168 102.388C132.64 102.916 131.848 103.18 130.792 103.18ZM117.58 117.184C115.708 117.184 113.968 116.944 112.36 116.464C110.752 115.984 109.36 115.276 108.184 114.34C107.008 113.404 106.084 112.24 105.412 110.848C104.764 109.48 104.44 107.908 104.44 106.132C104.44 104.404 104.716 102.832 105.268 101.416C105.82 100 106.576 98.728 107.536 97.6C108.52 96.448 109.66 95.44 110.956 94.576C112.276 93.688 113.704 92.956 115.24 92.38C116.8 91.78 118.42 91.324 120.1 91.012L120.316 91.696C119.764 91.528 119.128 91.348 118.408 91.156C117.688 90.94 116.908 90.748 116.068 90.58C115.228 90.388 114.34 90.232 113.404 90.112C112.492 89.968 111.532 89.896 110.524 89.896C109.612 89.896 108.748 89.956 107.932 90.076C107.116 90.172 106.396 90.292 105.772 90.436L104.98 84.892C105.676 84.7 106.432 84.532 107.248 84.388C108.064 84.244 108.916 84.172 109.804 84.172C111.196 84.172 112.468 84.292 113.62 84.532C114.796 84.748 115.876 85.036 116.86 85.396C117.868 85.732 118.816 86.08 119.704 86.44C120.616 86.776 121.492 87.064 122.332 87.304C123.172 87.544 124.012 87.664 124.852 87.664H126.472L127.084 93.748C126.244 93.748 125.248 93.868 124.096 94.108C122.944 94.324 121.732 94.66 120.46 95.116C119.188 95.548 117.94 96.1 116.716 96.772C115.492 97.42 114.376 98.176 113.368 99.04C112.384 99.904 111.592 100.864 110.992 101.92C110.416 102.952 110.128 104.08 110.128 105.304C110.128 106.456 110.332 107.416 110.74 108.184C111.148 108.976 111.712 109.612 112.432 110.092C113.152 110.596 113.992 110.956 114.952 111.172C115.912 111.412 116.956 111.532 118.084 111.532C119.428 111.532 120.796 111.388 122.188 111.1C123.604 110.812 125.02 110.392 126.436 109.84L128.056 114.808C126.208 115.648 124.372 116.248 122.548 116.608C120.748 116.992 119.092 117.184 117.58 117.184ZM130.789 103.18L131.149 97.672C132.085 97.672 132.865 97.6 133.489 97.456C134.113 97.288 134.629 96.952 135.037 96.448C135.445 95.92 135.781 95.152 136.045 94.144C136.333 93.112 136.585 91.744 136.801 90.04L142.093 90.904C142.045 91.264 141.985 91.672 141.913 92.128C141.841 92.584 141.781 93.052 141.733 93.532C141.685 94.012 141.661 94.48 141.661 94.936C141.661 95.392 141.733 95.788 141.877 96.124C142.045 96.46 142.309 96.748 142.669 96.988C143.029 97.228 143.521 97.408 144.145 97.528C144.769 97.624 145.549 97.672 146.485 97.672C147.493 97.672 148.213 97.936 148.645 98.464C149.101 98.968 149.329 99.604 149.329 100.372C149.329 101.188 149.053 101.86 148.501 102.388C147.973 102.916 147.181 103.18 146.125 103.18C144.853 103.18 143.749 103.084 142.813 102.892C141.877 102.7 141.085 102.388 140.437 101.956C139.789 101.5 139.273 100.936 138.889 100.264C138.529 99.568 138.301 98.728 138.205 97.744H140.113C139.681 98.968 139.129 99.952 138.457 100.696C137.785 101.44 137.029 101.992 136.189 102.352C135.349 102.688 134.461 102.904 133.525 103C132.613 103.12 131.701 103.18 130.789 103.18ZM141.193 111.532C140.473 111.532 139.861 111.28 139.357 110.776C138.877 110.296 138.637 109.696 138.637 108.976C138.637 108.256 138.877 107.644 139.357 107.14C139.861 106.636 140.473 106.384 141.193 106.384C141.913 106.384 142.513 106.636 142.993 107.14C143.497 107.644 143.749 108.256 143.749 108.976C143.749 109.696 143.497 110.296 142.993 110.776C142.513 111.28 141.913 111.532 141.193 111.532ZM134.893 111.532C134.173 111.532 133.561 111.28 133.057 110.776C132.553 110.296 132.301 109.696 132.301 108.976C132.301 108.256 132.553 107.644 133.057 107.14C133.561 106.636 134.173 106.384 134.893 106.384C135.589 106.384 136.189 106.636 136.693 107.14C137.197 107.644 137.449 108.256 137.449 108.976C137.449 109.696 137.197 110.296 136.693 110.776C136.189 111.28 135.589 111.532 134.893 111.532ZM146.117 103.18L146.477 97.672C147.341 97.672 148.037 97.6 148.565 97.456C149.117 97.288 149.561 96.952 149.897 96.448C150.233 95.92 150.509 95.152 150.725 94.144C150.965 93.112 151.193 91.744 151.409 90.04L156.701 90.904C156.653 91.264 156.593 91.672 156.521 92.128C156.449 92.584 156.389 93.052 156.341 93.532C156.293 94.012 156.269 94.48 156.269 94.936C156.269 95.536 156.389 96.04 156.629 96.448C156.893 96.856 157.349 97.168 157.997 97.384C158.645 97.576 159.557 97.672 160.733 97.672C161.765 97.672 162.497 97.936 162.929 98.464C163.361 98.968 163.577 99.604 163.577 100.372C163.577 101.188 163.301 101.86 162.749 102.388C162.221 102.916 161.429 103.18 160.373 103.18C158.693 103.18 157.313 103 156.233 102.64C155.153 102.28 154.349 101.704 153.821 100.912C153.293 100.12 152.957 99.064 152.813 97.744H154.721C154.289 98.968 153.761 99.952 153.137 100.696C152.513 101.44 151.817 101.992 151.049 102.352C150.281 102.688 149.477 102.904 148.637 103C147.797 103.12 146.957 103.18 146.117 103.18ZM152.597 111.748C151.829 111.748 151.181 111.484 150.653 110.956C150.125 110.452 149.861 109.828 149.861 109.084C149.861 108.316 150.125 107.656 150.653 107.104C151.181 106.552 151.829 106.276 152.597 106.276C153.341 106.276 153.977 106.552 154.505 107.104C155.033 107.656 155.297 108.316 155.297 109.084C155.297 109.828 155.033 110.452 154.505 110.956C153.977 111.484 153.341 111.748 152.597 111.748ZM160.391 103.18L160.751 97.672C161.543 97.672 162.191 97.6 162.695 97.456C163.223 97.312 163.643 97 163.955 96.52C164.267 96.04 164.543 95.32 164.783 94.36C165.047 93.4 165.323 92.092 165.611 90.436L170.867 91.336C170.795 91.84 170.687 92.488 170.543 93.28C170.399 94.048 170.327 94.732 170.327 95.332C170.327 95.812 170.411 96.232 170.579 96.592C170.747 96.928 171.047 97.192 171.479 97.384C171.935 97.576 172.559 97.672 173.351 97.672C173.999 97.672 174.551 97.6 175.007 97.456C175.463 97.312 175.847 97 176.159 96.52C176.471 96.04 176.747 95.296 176.987 94.288C177.227 93.28 177.455 91.912 177.671 90.184L183.035 91.012C182.915 91.612 182.807 92.224 182.711 92.848C182.615 93.472 182.531 94.048 182.459 94.576C182.387 95.08 182.351 95.5 182.351 95.836C182.351 96.148 182.447 96.448 182.639 96.736C182.831 97.024 183.167 97.252 183.647 97.42C184.151 97.588 184.847 97.672 185.735 97.672C186.863 97.672 187.655 97.432 188.111 96.952C188.591 96.472 188.831 95.728 188.831 94.72C188.831 94.192 188.819 93.604 188.795 92.956C188.771 92.308 188.723 91.576 188.651 90.76C188.603 89.944 188.507 89.008 188.363 87.952L193.619 87.556C193.787 89.692 193.979 91.432 194.195 92.776C194.435 94.096 194.735 95.116 195.095 95.836C195.479 96.556 195.983 97.048 196.607 97.312C197.231 97.552 198.035 97.672 199.019 97.672C200.051 97.672 200.783 97.936 201.215 98.464C201.671 98.968 201.899 99.604 201.899 100.372C201.899 101.188 201.623 101.86 201.071 102.388C200.543 102.916 199.739 103.18 198.659 103.18C198.083 103.18 197.447 103.12 196.751 103C196.079 102.904 195.395 102.7 194.699 102.388C194.027 102.052 193.403 101.572 192.827 100.948C192.275 100.3 191.819 99.424 191.459 98.32L192.107 98.536C191.771 99.688 191.315 100.6 190.739 101.272C190.163 101.944 189.443 102.436 188.579 102.748C187.715 103.036 186.647 103.18 185.375 103.18C184.271 103.18 183.275 103.024 182.387 102.712C181.499 102.4 180.791 101.896 180.263 101.2C179.759 100.48 179.507 99.52 179.507 98.32H180.731C180.227 99.736 179.651 100.804 179.003 101.524C178.379 102.22 177.611 102.676 176.699 102.892C175.811 103.084 174.671 103.18 173.279 103.18C172.391 103.18 171.515 103.072 170.651 102.856C169.811 102.64 169.055 102.184 168.383 101.488C167.711 100.792 167.195 99.724 166.835 98.284L169.067 98.248C168.515 99.64 167.807 100.684 166.943 101.38C166.079 102.076 165.095 102.556 163.991 102.82C162.911 103.06 161.711 103.18 160.391 103.18ZM198.711 103.18L199.071 97.672C200.535 97.672 201.663 97.588 202.455 97.42C203.247 97.228 203.787 96.928 204.075 96.52C204.363 96.088 204.507 95.524 204.507 94.828C204.507 94.108 204.411 93.28 204.219 92.344C204.051 91.384 203.823 90.4 203.535 89.392C203.271 88.384 202.995 87.46 202.707 86.62L208.071 85.18C208.359 85.996 208.659 86.956 208.971 88.06C209.283 89.14 209.535 90.268 209.727 91.444C209.943 92.62 210.051 93.784 210.051 94.936C210.051 96.688 209.751 98.116 209.151 99.22C208.575 100.3 207.771 101.128 206.739 101.704C205.707 102.28 204.507 102.676 203.139 102.892C201.771 103.084 200.295 103.18 198.711 103.18ZM208.827 82.048C208.107 82.048 207.495 81.796 206.991 81.292C206.511 80.788 206.271 80.188 206.271 79.492C206.271 78.772 206.511 78.16 206.991 77.656C207.495 77.152 208.107 76.9 208.827 76.9C209.523 76.9 210.123 77.152 210.627 77.656C211.131 78.16 211.383 78.772 211.383 79.492C211.383 80.188 211.131 80.788 210.627 81.292C210.123 81.796 209.523 82.048 208.827 82.048ZM202.491 82.012C201.771 82.012 201.159 81.76 200.655 81.256C200.175 80.752 199.935 80.152 199.935 79.456C199.935 78.736 200.175 78.124 200.655 77.62C201.159 77.116 201.771 76.864 202.491 76.864C203.187 76.864 203.787 77.116 204.291 77.62C204.795 78.124 205.047 78.736 205.047 79.456C205.047 80.152 204.795 80.752 204.291 81.256C203.787 81.76 203.187 82.012 202.491 82.012Z" fill="black"/>
<path d="M126.76 102.892L126.583 103.876L126.594 103.878L126.605 103.88L126.76 102.892ZM123.592 101.704L123.043 102.539L123.051 102.545L123.058 102.549L123.592 101.704ZM121.36 99.184L120.466 99.6312L120.472 99.643L120.478 99.6546L121.36 99.184ZM120.208 94.864L119.765 93.9679L119.13 94.2821L119.216 94.9847L120.208 94.864ZM124.132 92.92L125.116 92.7411L124.879 91.4343L123.689 92.0239L124.132 92.92ZM124.96 95.476L124.086 95.9616L124.09 95.9687L124.094 95.9757L124.96 95.476ZM126.328 96.916L125.808 97.7702L125.83 97.7833L125.852 97.7953L126.328 96.916ZM128.38 97.528L128.501 96.5353L128.501 96.5353L128.38 97.528ZM133.312 98.464L132.538 99.0972L132.554 99.1165L132.571 99.1349L133.312 98.464ZM133.168 102.388L132.477 101.665L132.469 101.673L132.461 101.681L133.168 102.388ZM108.184 114.34L107.562 115.122L107.562 115.122L108.184 114.34ZM105.412 110.848L104.509 111.276L104.512 111.283L105.412 110.848ZM105.268 101.416L104.337 101.053L104.337 101.053L105.268 101.416ZM107.536 97.6L106.776 96.9505L106.775 96.9519L107.536 97.6ZM110.956 94.576L111.511 95.4081L111.515 95.4057L110.956 94.576ZM115.24 92.38L115.592 93.3164L115.599 93.3133L115.24 92.38ZM120.1 91.012L121.054 90.7109L120.788 89.8673L119.918 90.0288L120.1 91.012ZM120.316 91.696L120.025 92.6527L121.842 93.2055L121.27 91.3949L120.316 91.696ZM118.408 91.156L118.121 92.1138L118.136 92.1183L118.151 92.1222L118.408 91.156ZM116.068 90.58L115.846 91.5549L115.859 91.5579L115.872 91.5606L116.068 90.58ZM113.404 90.112L113.248 91.0998L113.263 91.102L113.277 91.1039L113.404 90.112ZM107.932 90.076L108.049 91.0691L108.064 91.0675L108.078 91.0654L107.932 90.076ZM105.772 90.436L104.782 90.5774L104.936 91.6552L105.997 91.4104L105.772 90.436ZM104.98 84.892L104.715 83.928L103.866 84.1621L103.99 85.0334L104.98 84.892ZM113.62 84.532L113.416 85.511L113.428 85.5134L113.44 85.5155L113.62 84.532ZM116.86 85.396L116.517 86.3351L116.53 86.3401L116.544 86.3447L116.86 85.396ZM119.704 86.44L119.329 87.3667L119.344 87.3728L119.359 87.3783L119.704 86.44ZM122.332 87.304L122.607 86.3425L122.607 86.3425L122.332 87.304ZM126.472 87.664L127.467 87.5639L127.377 86.664H126.472V87.664ZM127.084 93.748V94.748H128.19L128.079 93.6479L127.084 93.748ZM124.096 94.108L124.281 95.0909L124.291 95.089L124.3 95.087L124.096 94.108ZM120.46 95.116L120.782 96.0629L120.79 96.0602L120.798 96.0573L120.46 95.116ZM116.716 96.772L117.184 97.6558L117.191 97.6522L117.198 97.6486L116.716 96.772ZM113.368 99.04L112.718 98.2807L112.709 98.2886L113.368 99.04ZM110.992 101.92L110.123 101.426L110.119 101.433L110.992 101.92ZM110.74 108.184L111.629 107.726L111.624 107.715L110.74 108.184ZM112.432 110.092L113.006 109.273L112.997 109.266L112.987 109.26L112.432 110.092ZM114.952 111.172L115.195 110.202L115.183 110.199L115.172 110.196L114.952 111.172ZM122.188 111.1L121.989 110.12L121.986 110.121L122.188 111.1ZM126.436 109.84L127.387 109.53L127.059 108.524L126.073 108.908L126.436 109.84ZM128.056 114.808L128.47 115.718L129.284 115.348L129.007 114.498L128.056 114.808ZM122.548 116.608L122.355 115.627L122.347 115.628L122.34 115.63L122.548 116.608ZM130.792 102.18C129.371 102.18 128.08 102.087 126.915 101.904L126.605 103.88C127.889 104.081 129.286 104.18 130.792 104.18V102.18ZM126.938 101.908C125.848 101.712 124.916 101.357 124.126 100.859L123.058 102.549C124.093 103.203 125.273 103.64 126.583 103.876L126.938 101.908ZM124.142 100.869C123.386 100.371 122.75 99.6641 122.243 98.7134L120.478 99.6546C121.123 100.864 121.975 101.837 123.043 102.539L124.142 100.869ZM122.255 98.7368C121.772 97.7701 121.409 96.4521 121.201 94.7433L119.216 94.9847C119.44 96.8279 119.845 98.3899 120.466 99.6312L122.255 98.7368ZM120.652 95.7601L124.576 93.8161L123.689 92.0239L119.765 93.9679L120.652 95.7601ZM123.149 93.0989C123.352 94.2186 123.655 95.1857 124.086 95.9616L125.835 94.9904C125.546 94.4703 125.297 93.7334 125.116 92.7411L123.149 93.0989ZM124.094 95.9757C124.528 96.7281 125.097 97.3373 125.808 97.7702L126.848 96.0618C126.456 95.8227 126.113 95.4719 125.827 94.9763L124.094 95.9757ZM125.852 97.7953C126.56 98.1786 127.37 98.4128 128.26 98.5207L128.501 96.5353C127.807 96.4512 127.249 96.2774 126.805 96.0367L125.852 97.7953ZM128.26 98.5207C129.102 98.6228 130.068 98.672 131.152 98.672V96.672C130.125 96.672 129.242 96.6252 128.501 96.5353L128.26 98.5207ZM131.152 98.672C132.008 98.672 132.373 98.8953 132.538 99.0972L134.086 97.8308C133.388 96.9767 132.313 96.672 131.152 96.672V98.672ZM132.571 99.1349C132.839 99.4309 132.996 99.8173 132.996 100.372H134.996C134.996 99.3907 134.698 98.5051 134.054 97.7931L132.571 99.1349ZM132.996 100.372C132.996 100.936 132.817 101.34 132.477 101.665L133.86 103.111C134.623 102.38 134.996 101.44 134.996 100.372H132.996ZM132.461 101.681C132.187 101.955 131.694 102.18 130.792 102.18V104.18C132.003 104.18 133.094 103.877 133.876 103.095L132.461 101.681ZM117.58 116.184C115.794 116.184 114.152 115.955 112.646 115.506L112.074 117.422C113.785 117.933 115.623 118.184 117.58 118.184V116.184ZM112.646 115.506C111.147 115.058 109.872 114.405 108.807 113.558L107.562 115.122C108.849 116.147 110.358 116.91 112.074 117.422L112.646 115.506ZM108.807 113.558C107.752 112.718 106.922 111.674 106.313 110.413L104.512 111.283C105.247 112.806 106.265 114.09 107.562 115.122L108.807 113.558ZM106.316 110.42C105.742 109.207 105.44 107.785 105.44 106.132H103.44C103.44 108.031 103.787 109.753 104.509 111.276L106.316 110.42ZM105.44 106.132C105.44 104.511 105.699 103.065 106.2 101.779L104.337 101.053C103.734 102.599 103.44 104.297 103.44 106.132H105.44ZM106.2 101.779C106.713 100.464 107.412 99.2891 108.298 98.2481L106.775 96.9519C105.741 98.1669 104.928 99.5357 104.337 101.053L106.2 101.779ZM108.297 98.2495C109.219 97.1695 110.29 96.2224 111.511 95.408L110.402 93.7439C109.031 94.6576 107.822 95.7265 106.776 96.9505L108.297 98.2495ZM111.515 95.4057C112.768 94.5625 114.126 93.8658 115.592 93.3163L114.889 91.4437C113.283 92.0462 111.785 92.8135 110.398 93.7463L111.515 95.4057ZM115.599 93.3133C117.101 92.7358 118.662 92.2963 120.283 91.9952L119.918 90.0288C118.179 90.3517 116.5 90.8242 114.881 91.4467L115.599 93.3133ZM119.147 91.3131L119.363 91.9971L121.27 91.3949L121.054 90.7109L119.147 91.3131ZM120.608 90.7393C120.042 90.5671 119.394 90.3839 118.666 90.1898L118.151 92.1222C118.863 92.3121 119.487 92.4889 120.025 92.6527L120.608 90.7393ZM118.696 90.1982C117.942 89.972 117.131 89.7727 116.265 89.5994L115.872 91.5606C116.686 91.7233 117.435 91.908 118.121 92.1138L118.696 90.1982ZM116.291 89.6051C115.417 89.4053 114.497 89.2439 113.532 89.1201L113.277 91.1039C114.184 91.2201 115.04 91.3707 115.846 91.5549L116.291 89.6051ZM113.56 89.1242C112.592 88.9714 111.58 88.896 110.524 88.896V90.896C111.485 90.896 112.393 90.9646 113.248 91.0998L113.56 89.1242ZM110.524 88.896C109.569 88.896 108.656 88.9589 107.787 89.0866L108.078 91.0654C108.841 90.9531 109.656 90.896 110.524 90.896V88.896ZM107.816 89.0828C106.973 89.182 106.216 89.3075 105.548 89.4616L105.997 91.4104C106.577 91.2765 107.26 91.162 108.049 91.0691L107.816 89.0828ZM106.762 90.2946L105.97 84.7506L103.99 85.0334L104.782 90.5774L106.762 90.2946ZM105.246 85.856C105.908 85.6735 106.633 85.5121 107.422 85.3728L107.075 83.4032C106.232 83.5519 105.445 83.7265 104.715 83.928L105.246 85.856ZM107.422 85.3728C108.177 85.2396 108.971 85.172 109.804 85.172V83.172C108.862 83.172 107.952 83.2484 107.075 83.4032L107.422 85.3728ZM109.804 85.172C111.14 85.172 112.342 85.2872 113.416 85.511L113.824 83.553C112.594 83.2968 111.253 83.172 109.804 83.172V85.172ZM113.44 85.5155C114.568 85.7228 115.593 85.997 116.517 86.3351L117.204 84.4569C116.16 84.075 115.025 83.7732 113.801 83.5485L113.44 85.5155ZM116.544 86.3447C117.534 86.6747 118.462 87.0155 119.329 87.3667L120.08 85.5133C119.171 85.1445 118.203 84.7893 117.177 84.4473L116.544 86.3447ZM119.359 87.3783C120.292 87.722 121.191 88.018 122.058 88.2655L122.607 86.3425C121.794 86.11 120.941 85.83 120.05 85.5017L119.359 87.3783ZM122.058 88.2655C122.983 88.53 123.916 88.664 124.852 88.664V86.664C124.109 86.664 123.361 86.558 122.607 86.3425L122.058 88.2655ZM124.852 88.664H126.472V86.664H124.852V88.664ZM125.477 87.7641L126.089 93.8481L128.079 93.6479L127.467 87.5639L125.477 87.7641ZM127.084 92.748C126.155 92.748 125.087 92.8801 123.892 93.129L124.3 95.087C125.41 94.8559 126.334 94.748 127.084 94.748V92.748ZM123.912 93.1251C122.701 93.3522 121.437 93.7034 120.123 94.1747L120.798 96.0573C122.027 95.6166 123.188 95.2958 124.281 95.0909L123.912 93.1251ZM120.139 94.1691C118.81 94.6206 117.508 95.1965 116.235 95.8954L117.198 97.6486C118.373 97.0035 119.567 96.4754 120.782 96.0629L120.139 94.1691ZM116.249 95.8882C114.962 96.5693 113.784 97.3666 112.718 98.2807L114.019 99.7993C114.969 98.9854 116.023 98.2707 117.184 97.6558L116.249 95.8882ZM112.709 98.2886C111.647 99.2203 110.782 100.266 110.123 101.426L111.862 102.414C112.403 101.462 113.121 100.588 114.028 99.7914L112.709 98.2886ZM110.119 101.433C109.457 102.619 109.128 103.916 109.128 105.304H111.128C111.128 104.244 111.376 103.285 111.866 102.407L110.119 101.433ZM109.128 105.304C109.128 106.568 109.352 107.701 109.857 108.653L111.624 107.715C111.313 107.131 111.128 106.344 111.128 105.304H109.128ZM109.851 108.642C110.335 109.58 111.012 110.347 111.878 110.924L112.987 109.26C112.413 108.877 111.962 108.372 111.629 107.726L109.851 108.642ZM111.859 110.911C112.698 111.498 113.661 111.906 114.733 112.148L115.172 110.196C114.324 110.006 113.607 109.694 113.006 109.273L111.859 110.911ZM114.71 112.142C115.759 112.405 116.886 112.532 118.084 112.532V110.532C117.027 110.532 116.066 110.419 115.195 110.202L114.71 112.142ZM118.084 112.532C119.5 112.532 120.936 112.38 122.391 112.079L121.986 110.121C120.657 110.396 119.357 110.532 118.084 110.532V112.532ZM122.388 112.08C123.862 111.78 125.333 111.343 126.8 110.772L126.073 108.908C124.708 109.441 123.346 109.844 121.989 110.12L122.388 112.08ZM125.486 110.15L127.106 115.118L129.007 114.498L127.387 109.53L125.486 110.15ZM127.643 113.898C125.859 114.709 124.096 115.283 122.355 115.627L122.742 117.589C124.649 117.213 126.558 116.587 128.47 115.718L127.643 113.898ZM122.34 115.63C120.594 116.002 119.009 116.184 117.58 116.184V118.184C119.176 118.184 120.903 117.982 122.757 117.586L122.34 115.63ZM130.789 103.18L129.791 103.115L129.722 104.18H130.789V103.18ZM131.149 97.672V96.672H130.212L130.151 97.6068L131.149 97.672ZM133.489 97.456L133.714 98.4304L133.732 98.4263L133.749 98.4216L133.489 97.456ZM135.037 96.448L135.814 97.0772L135.821 97.0684L135.828 97.0594L135.037 96.448ZM136.045 94.144L135.082 93.8752L135.08 93.8829L135.078 93.8906L136.045 94.144ZM136.801 90.04L136.962 89.0531L135.939 88.8861L135.809 89.9142L136.801 90.04ZM142.093 90.904L143.084 91.0362L143.213 90.0735L142.254 89.9171L142.093 90.904ZM141.733 93.532L142.728 93.6315L142.728 93.6315L141.733 93.532ZM141.877 96.124L140.958 96.5179L140.969 96.5449L140.983 96.5712L141.877 96.124ZM142.669 96.988L142.114 97.82L142.114 97.8201L142.669 96.988ZM144.145 97.528L143.956 98.51L143.975 98.5135L143.993 98.5164L144.145 97.528ZM148.645 98.464L147.871 99.0972L147.887 99.1165L147.904 99.1349L148.645 98.464ZM148.501 102.388L147.81 101.665L147.802 101.673L147.794 101.681L148.501 102.388ZM142.813 102.892L142.612 103.872L142.813 102.892ZM140.437 101.956L139.862 102.774L139.872 102.781L139.882 102.788L140.437 101.956ZM138.889 100.264L138.001 100.723L138.01 100.742L138.021 100.76L138.889 100.264ZM138.205 97.744V96.744H137.103L137.21 97.8411L138.205 97.744ZM140.113 97.744L141.056 98.0768L141.526 96.744H140.113V97.744ZM138.457 100.696L139.199 101.366L139.199 101.366L138.457 100.696ZM136.189 102.352L136.56 103.28L136.572 103.276L136.583 103.271L136.189 102.352ZM133.525 103L133.423 102.005L133.409 102.007L133.395 102.009L133.525 103ZM139.357 110.776L140.064 110.069L140.064 110.069L139.357 110.776ZM139.357 107.14L138.65 106.433L138.641 106.442L138.633 106.45L139.357 107.14ZM142.993 107.14L142.269 107.83L142.277 107.838L142.286 107.847L142.993 107.14ZM142.993 110.776L142.303 110.052L142.286 110.069L142.269 110.086L142.993 110.776ZM133.057 110.776L133.764 110.069L133.756 110.06L133.747 110.052L133.057 110.776ZM133.057 107.14L132.35 106.433L132.35 106.433L133.057 107.14ZM136.693 107.14L137.4 106.433L137.4 106.433L136.693 107.14ZM136.693 110.776L136.003 110.052L135.995 110.06L135.986 110.069L136.693 110.776ZM131.787 103.245L132.147 97.7372L130.151 97.6068L129.791 103.115L131.787 103.245ZM131.149 98.672C132.129 98.672 132.991 98.5972 133.714 98.4304L133.264 96.4816C132.739 96.6028 132.041 96.672 131.149 96.672V98.672ZM133.749 98.4216C134.577 98.1986 135.274 97.7445 135.814 97.0772L134.26 95.8188C133.984 96.1595 133.649 96.3774 133.229 96.4904L133.749 98.4216ZM135.828 97.0594C136.352 96.3824 136.731 95.4702 137.012 94.3974L135.078 93.8906C134.831 94.8338 134.539 95.4576 134.246 95.8366L135.828 97.0594ZM137.008 94.4128C137.315 93.3146 137.574 91.893 137.793 90.1658L135.809 89.9142C135.596 91.595 135.351 92.9094 135.082 93.8752L137.008 94.4128ZM136.64 91.0269L141.932 91.8909L142.254 89.9171L136.962 89.0531L136.64 91.0269ZM141.102 90.7718C141.055 91.1221 140.996 91.522 140.925 91.972L142.901 92.284C142.974 91.822 143.035 91.4059 143.084 91.0362L141.102 90.7718ZM140.925 91.972C140.85 92.4476 140.788 92.9345 140.738 93.4325L142.728 93.6315C142.774 93.1695 142.832 92.7204 142.901 92.284L140.925 91.972ZM140.738 93.4325C140.687 93.9437 140.661 94.4449 140.661 94.936H142.661C142.661 94.5151 142.683 94.0803 142.728 93.6315L140.738 93.4325ZM140.661 94.936C140.661 95.495 140.749 96.0307 140.958 96.5179L142.796 95.7301C142.717 95.5453 142.661 95.289 142.661 94.936H140.661ZM140.983 96.5712C141.24 97.0852 141.632 97.4984 142.114 97.82L143.224 96.1559C142.986 95.9976 142.851 95.8348 142.771 95.6768L140.983 96.5712ZM142.114 97.8201C142.624 98.16 143.257 98.3756 143.956 98.51L144.334 96.546C143.785 96.4404 143.434 96.296 143.224 96.1559L142.114 97.8201ZM143.993 98.5164C144.685 98.6228 145.52 98.672 146.485 98.672V96.672C145.578 96.672 144.853 96.6252 144.297 96.5396L143.993 98.5164ZM146.485 98.672C147.34 98.672 147.706 98.8953 147.871 99.0972L149.419 97.8308C148.72 96.9767 147.646 96.672 146.485 96.672V98.672ZM147.904 99.1349C148.171 99.4309 148.329 99.8173 148.329 100.372H150.329C150.329 99.3907 150.031 98.5051 149.387 97.7931L147.904 99.1349ZM148.329 100.372C148.329 100.936 148.15 101.34 147.81 101.665L149.192 103.111C149.956 102.38 150.329 101.44 150.329 100.372H148.329ZM147.794 101.681C147.52 101.955 147.027 102.18 146.125 102.18V104.18C147.335 104.18 148.426 103.877 149.208 103.095L147.794 101.681ZM146.125 102.18C144.9 102.18 143.866 102.087 143.014 101.912L142.612 103.872C143.632 104.081 144.806 104.18 146.125 104.18V102.18ZM143.014 101.912C142.177 101.741 141.511 101.47 140.992 101.124L139.882 102.788C140.659 103.306 141.578 103.659 142.612 103.872L143.014 101.912ZM141.013 101.138C140.482 100.765 140.067 100.309 139.757 99.7679L138.021 100.76C138.479 101.563 139.097 102.235 139.862 102.774L141.013 101.138ZM139.777 99.8046C139.489 99.2467 139.287 98.5362 139.2 97.6469L137.21 97.8411C137.315 98.9198 137.569 99.8893 138.001 100.723L139.777 99.8046ZM138.205 98.744H140.113V96.744H138.205V98.744ZM139.17 97.4112C138.77 98.5456 138.276 99.4041 137.715 100.026L139.199 101.366C139.982 100.5 140.592 99.3904 141.056 98.0768L139.17 97.4112ZM137.715 100.026C137.13 100.673 136.49 101.135 135.795 101.433L136.583 103.271C137.568 102.849 138.44 102.207 139.199 101.366L137.715 100.026ZM135.818 101.424C135.067 101.724 134.27 101.918 133.423 102.005L133.627 103.995C134.652 103.89 135.631 103.652 136.56 103.28L135.818 101.424ZM133.395 102.009C132.525 102.123 131.657 102.18 130.789 102.18V104.18C131.745 104.18 132.701 104.117 133.656 103.991L133.395 102.009ZM141.193 110.532C140.735 110.532 140.379 110.383 140.064 110.069L138.65 111.483C139.344 112.177 140.211 112.532 141.193 112.532V110.532ZM140.064 110.069C139.784 109.789 139.637 109.449 139.637 108.976H137.637C137.637 109.943 137.97 110.803 138.65 111.483L140.064 110.069ZM139.637 108.976C139.637 108.503 139.785 108.141 140.081 107.83L138.633 106.45C137.969 107.147 137.637 108.009 137.637 108.976H139.637ZM140.064 107.847C140.379 107.533 140.735 107.384 141.193 107.384V105.384C140.211 105.384 139.344 105.739 138.65 106.433L140.064 107.847ZM141.193 107.384C141.65 107.384 141.985 107.531 142.269 107.83L143.717 106.45C143.041 105.741 142.176 105.384 141.193 105.384V107.384ZM142.286 107.847C142.6 108.161 142.749 108.518 142.749 108.976H144.749C144.749 107.994 144.394 107.127 143.7 106.433L142.286 107.847ZM142.749 108.976C142.749 109.433 142.602 109.768 142.303 110.052L143.683 111.5C144.392 110.824 144.749 109.959 144.749 108.976H142.749ZM142.269 110.086C141.985 110.385 141.65 110.532 141.193 110.532V112.532C142.176 112.532 143.041 112.175 143.717 111.466L142.269 110.086ZM134.893 110.532C134.435 110.532 134.079 110.383 133.764 110.069L132.35 111.483C133.044 112.177 133.911 112.532 134.893 112.532V110.532ZM133.747 110.052C133.448 109.768 133.301 109.433 133.301 108.976H131.301C131.301 109.959 131.658 110.824 132.367 111.5L133.747 110.052ZM133.301 108.976C133.301 108.518 133.45 108.161 133.764 107.847L132.35 106.433C131.656 107.127 131.301 107.994 131.301 108.976H133.301ZM133.764 107.847C134.079 107.533 134.435 107.384 134.893 107.384V105.384C133.911 105.384 133.044 105.739 132.35 106.433L133.764 107.847ZM134.893 107.384C135.317 107.384 135.664 107.526 135.986 107.847L137.4 106.433C136.714 105.746 135.861 105.384 134.893 105.384V107.384ZM135.986 107.847C136.3 108.161 136.449 108.518 136.449 108.976H138.449C138.449 107.994 138.094 107.127 137.4 106.433L135.986 107.847ZM136.449 108.976C136.449 109.433 136.302 109.768 136.003 110.052L137.383 111.5C138.092 110.824 138.449 109.959 138.449 108.976H136.449ZM135.986 110.069C135.664 110.39 135.317 110.532 134.893 110.532V112.532C135.861 112.532 136.714 112.17 137.4 111.483L135.986 110.069ZM146.117 103.18L145.119 103.115L145.05 104.18H146.117V103.18ZM146.477 97.672V96.672H145.54L145.479 97.6068L146.477 97.672ZM148.565 97.456L148.828 98.4208L148.842 98.4169L148.856 98.4127L148.565 97.456ZM149.897 96.448L150.729 97.0027L150.735 96.9938L150.741 96.9849L149.897 96.448ZM150.725 94.144L149.751 93.9175L149.749 93.926L149.747 93.9345L150.725 94.144ZM151.409 90.04L151.57 89.0531L150.547 88.8861L150.417 89.9142L151.409 90.04ZM156.701 90.904L157.692 91.0362L157.821 90.0735L156.862 89.9171L156.701 90.904ZM156.521 92.128L155.533 91.972L155.533 91.972L156.521 92.128ZM156.341 93.532L157.336 93.6315L157.336 93.6315L156.341 93.532ZM156.629 96.448L155.767 96.955L155.778 96.9734L155.79 96.9912L156.629 96.448ZM157.997 97.384L157.681 98.3327L157.697 98.338L157.713 98.3428L157.997 97.384ZM162.929 98.464L162.155 99.0972L162.162 99.1061L162.17 99.1148L162.929 98.464ZM162.749 102.388L162.058 101.665L162.05 101.673L162.042 101.681L162.749 102.388ZM156.233 102.64L156.549 101.691L156.549 101.691L156.233 102.64ZM153.821 100.912L154.653 100.357L154.653 100.357L153.821 100.912ZM152.813 97.744V96.744H151.698L151.819 97.8524L152.813 97.744ZM154.721 97.744L155.664 98.0768L156.135 96.744H154.721V97.744ZM153.137 100.696L152.371 100.053L152.371 100.053L153.137 100.696ZM151.049 102.352L151.45 103.268L151.462 103.263L151.474 103.257L151.049 102.352ZM148.637 103L148.524 102.006L148.51 102.008L148.496 102.01L148.637 103ZM150.653 110.956L151.36 110.249L151.352 110.241L151.344 110.233L150.653 110.956ZM154.505 107.104L153.783 107.795L153.783 107.795L154.505 107.104ZM154.505 110.956L153.815 110.233L153.806 110.241L153.798 110.249L154.505 110.956ZM147.115 103.245L147.475 97.7372L145.479 97.6068L145.119 103.115L147.115 103.245ZM146.477 98.672C147.385 98.672 148.18 98.5976 148.828 98.4208L148.302 96.4912C147.894 96.6024 147.297 96.672 146.477 96.672V98.672ZM148.856 98.4127C149.641 98.1738 150.272 97.6889 150.729 97.0027L149.065 95.8933C148.851 96.2151 148.593 96.4022 148.274 96.4993L148.856 98.4127ZM150.741 96.9849C151.169 96.3126 151.476 95.4125 151.703 94.3535L149.747 93.9345C149.542 94.8915 149.298 95.5274 149.054 95.9111L150.741 96.9849ZM151.699 94.3705C151.95 93.2913 152.183 91.8856 152.401 90.1658L150.417 89.9142C150.203 91.6024 149.98 92.9327 149.751 93.9175L151.699 94.3705ZM151.248 91.0269L156.54 91.8909L156.862 89.9171L151.57 89.0531L151.248 91.0269ZM155.71 90.7718C155.663 91.1221 155.604 91.522 155.533 91.972L157.509 92.284C157.582 91.822 157.643 91.4059 157.692 91.0362L155.71 90.7718ZM155.533 91.972C155.458 92.4476 155.396 92.9345 155.346 93.4325L157.336 93.6315C157.382 93.1695 157.44 92.7204 157.509 92.284L155.533 91.972ZM155.346 93.4325C155.295 93.9437 155.269 94.4449 155.269 94.936H157.269C157.269 94.5151 157.291 94.0803 157.336 93.6315L155.346 93.4325ZM155.269 94.936C155.269 95.6673 155.416 96.3573 155.767 96.955L157.491 95.941C157.363 95.7226 157.269 95.4047 157.269 94.936H155.269ZM155.79 96.9912C156.218 97.654 156.903 98.0735 157.681 98.3327L158.313 96.4353C157.795 96.2625 157.568 96.058 157.469 95.9047L155.79 96.9912ZM157.713 98.3428C158.497 98.5751 159.521 98.672 160.733 98.672V96.672C159.594 96.672 158.793 96.5769 158.281 96.4252L157.713 98.3428ZM160.733 98.672C161.622 98.672 161.994 98.9001 162.155 99.0972L163.703 97.8308C163 96.9719 161.909 96.672 160.733 96.672V98.672ZM162.17 99.1148C162.423 99.4096 162.577 99.8031 162.577 100.372H164.577C164.577 99.4049 164.3 98.5264 163.688 97.8132L162.17 99.1148ZM162.577 100.372C162.577 100.936 162.398 101.34 162.058 101.665L163.44 103.111C164.204 102.38 164.577 101.44 164.577 100.372H162.577ZM162.042 101.681C161.768 101.955 161.275 102.18 160.373 102.18V104.18C161.583 104.18 162.675 103.877 163.456 103.095L162.042 101.681ZM160.373 102.18C158.755 102.18 157.491 102.005 156.549 101.691L155.917 103.589C157.135 103.995 158.632 104.18 160.373 104.18V102.18ZM156.549 101.691C155.638 101.387 155.035 100.93 154.653 100.357L152.989 101.467C153.663 102.478 154.669 103.173 155.917 103.589L156.549 101.691ZM154.653 100.357C154.242 99.7411 153.94 98.8554 153.807 97.6356L151.819 97.8524C151.974 99.2726 152.344 100.499 152.989 101.467L154.653 100.357ZM152.813 98.744H154.721V96.744H152.813V98.744ZM153.778 97.4112C153.373 98.5579 152.897 99.4264 152.371 100.053L153.903 101.339C154.625 100.478 155.205 99.3781 155.664 98.0768L153.778 97.4112ZM152.371 100.053C151.827 100.702 151.243 101.157 150.625 101.447L151.474 103.257C152.391 102.827 153.199 102.178 153.903 101.339L152.371 100.053ZM150.648 101.436C149.973 101.732 149.265 101.922 148.524 102.006L148.751 103.994C149.689 103.886 150.59 103.644 151.45 103.268L150.648 101.436ZM148.496 102.01C147.702 102.123 146.909 102.18 146.117 102.18V104.18C147.005 104.18 147.892 104.117 148.779 103.99L148.496 102.01ZM152.597 110.748C152.086 110.748 151.695 110.583 151.36 110.249L149.946 111.663C150.668 112.385 151.572 112.748 152.597 112.748V110.748ZM151.344 110.233C151.018 109.921 150.861 109.561 150.861 109.084H148.861C148.861 110.095 149.233 110.983 149.963 111.679L151.344 110.233ZM150.861 109.084C150.861 108.572 151.027 108.16 151.376 107.795L149.931 106.413C149.223 107.152 148.861 108.06 148.861 109.084H150.861ZM151.376 107.795C151.714 107.442 152.1 107.276 152.597 107.276V105.276C151.558 105.276 150.648 105.662 149.931 106.413L151.376 107.795ZM152.597 107.276C153.06 107.276 153.438 107.435 153.783 107.795L155.228 106.413C154.517 105.669 153.622 105.276 152.597 105.276V107.276ZM153.783 107.795C154.131 108.16 154.297 108.572 154.297 109.084H156.297C156.297 108.06 155.935 107.152 155.228 106.413L153.783 107.795ZM154.297 109.084C154.297 109.561 154.141 109.921 153.815 110.233L155.196 111.679C155.926 110.983 156.297 110.095 156.297 109.084H154.297ZM153.798 110.249C153.457 110.59 153.075 110.748 152.597 110.748V112.748C153.607 112.748 154.498 112.378 155.212 111.663L153.798 110.249ZM160.391 103.18L159.393 103.115L159.323 104.18H160.391V103.18ZM160.751 97.672V96.672H159.814L159.753 97.6068L160.751 97.672ZM162.695 97.456L162.431 96.4912L162.42 96.4945L162.695 97.456ZM163.955 96.52L164.793 97.065L164.793 97.065L163.955 96.52ZM164.783 94.36L163.818 94.0948L163.815 94.1061L163.812 94.1175L164.783 94.36ZM165.611 90.436L165.779 89.4503L164.796 89.282L164.625 90.2647L165.611 90.436ZM170.867 91.336L171.857 91.4774L171.994 90.5145L171.035 90.3503L170.867 91.336ZM170.543 93.28L171.526 93.4643L171.526 93.4589L170.543 93.28ZM170.579 96.592L169.672 97.0149L169.678 97.0271L169.684 97.0392L170.579 96.592ZM171.479 97.384L171.072 98.2978L171.081 98.3018L171.091 98.3056L171.479 97.384ZM175.007 97.456L174.705 96.5024L174.705 96.5024L175.007 97.456ZM176.987 94.288L176.014 94.0564L176.014 94.0564L176.987 94.288ZM177.671 90.184L177.823 89.1957L176.806 89.0387L176.678 90.06L177.671 90.184ZM183.035 91.012L184.015 91.2081L184.22 90.1832L183.187 90.0237L183.035 91.012ZM182.711 92.848L181.722 92.6959L181.722 92.6959L182.711 92.848ZM182.459 94.576L183.449 94.7174L183.449 94.7111L182.459 94.576ZM182.639 96.736L183.471 96.1813L183.471 96.1813L182.639 96.736ZM183.647 97.42L183.316 98.3639L183.323 98.3663L183.33 98.3687L183.647 97.42ZM188.111 96.952L187.404 96.2449L187.394 96.254L187.386 96.2633L188.111 96.952ZM188.651 90.76L187.652 90.8187L187.653 90.8333L187.654 90.8479L188.651 90.76ZM188.363 87.952L188.287 86.9548L187.228 87.0346L187.372 88.0871L188.363 87.952ZM193.619 87.556L194.616 87.4776L194.537 86.4839L193.543 86.5588L193.619 87.556ZM194.195 92.776L193.207 92.9347L193.209 92.9448L193.211 92.9549L194.195 92.776ZM195.095 95.836L194.2 96.2832L194.206 96.295L194.212 96.3066L195.095 95.836ZM196.607 97.312L196.217 98.233L196.232 98.2394L196.248 98.2453L196.607 97.312ZM201.215 98.464L200.441 99.0972L200.456 99.1165L200.473 99.1349L201.215 98.464ZM201.071 102.388L200.379 101.665L200.371 101.673L200.364 101.681L201.071 102.388ZM196.751 103L196.921 102.015L196.906 102.012L196.892 102.01L196.751 103ZM194.699 102.388L194.251 103.282L194.27 103.292L194.29 103.301L194.699 102.388ZM192.827 100.948L192.065 101.596L192.078 101.612L192.092 101.626L192.827 100.948ZM191.459 98.32L191.775 97.3713L189.893 96.744L190.508 98.63L191.459 98.32ZM192.107 98.536L193.067 98.816L193.336 97.8918L192.423 97.5873L192.107 98.536ZM190.739 101.272L191.498 101.923L191.498 101.923L190.739 101.272ZM188.579 102.748L188.895 103.697L188.907 103.693L188.918 103.689L188.579 102.748ZM182.387 102.712L182.055 103.655L182.387 102.712ZM180.263 101.2L179.443 101.773L179.454 101.789L179.466 101.804L180.263 101.2ZM179.507 98.32V97.32H178.507V98.32H179.507ZM180.731 98.32L181.673 98.6553L182.148 97.32H180.731V98.32ZM179.003 101.524L178.259 100.855L178.258 100.856L179.003 101.524ZM176.699 102.892L176.91 103.869L176.92 103.867L176.929 103.865L176.699 102.892ZM170.651 102.856L170.402 103.825L170.408 103.826L170.651 102.856ZM168.383 101.488L169.102 100.793L169.102 100.793L168.383 101.488ZM166.835 98.284L166.818 97.2841L165.559 97.3044L165.864 98.5265L166.835 98.284ZM169.067 98.248L169.996 98.6166L170.548 97.224L169.05 97.2481L169.067 98.248ZM166.943 101.38L166.315 100.601L166.315 100.601L166.943 101.38ZM163.991 102.82L164.208 103.796L164.215 103.794L164.223 103.793L163.991 102.82ZM161.388 103.245L161.748 97.7372L159.753 97.6068L159.393 103.115L161.388 103.245ZM160.751 98.672C161.593 98.672 162.343 98.5965 162.969 98.4175L162.42 96.4945C162.038 96.6035 161.492 96.672 160.751 96.672V98.672ZM162.958 98.4208C163.734 98.209 164.354 97.7404 164.793 97.065L163.116 95.975C162.931 96.2596 162.711 96.415 162.432 96.4912L162.958 98.4208ZM164.793 97.065C165.194 96.4483 165.502 95.6036 165.753 94.6025L163.812 94.1175C163.583 95.0364 163.339 95.6317 163.116 95.975L164.793 97.065ZM165.747 94.6252C166.023 93.6204 166.306 92.2767 166.596 90.6073L164.625 90.2647C164.34 91.9073 164.07 93.1796 163.818 94.0948L165.747 94.6252ZM165.442 91.4217L170.698 92.3217L171.035 90.3503L165.779 89.4503L165.442 91.4217ZM169.877 91.1946C169.807 91.681 169.702 92.3153 169.559 93.1011L171.526 93.4589C171.672 92.6607 171.782 91.999 171.857 91.4774L169.877 91.1946ZM169.56 93.0957C169.408 93.9074 169.327 94.6549 169.327 95.332H171.327C171.327 94.8091 171.39 94.1886 171.525 93.4643L169.56 93.0957ZM169.327 95.332C169.327 95.9282 169.431 96.4978 169.672 97.0149L171.485 96.1691C171.39 95.9662 171.327 95.6958 171.327 95.332H169.327ZM169.684 97.0392C169.98 97.6317 170.485 98.0366 171.072 98.2978L171.885 96.4702C171.609 96.3474 171.513 96.2243 171.473 96.1448L169.684 97.0392ZM171.091 98.3056C171.721 98.5711 172.496 98.672 173.351 98.672V96.672C172.621 96.672 172.148 96.5809 171.867 96.4624L171.091 98.3056ZM173.351 98.672C174.067 98.672 174.727 98.5931 175.308 98.4096L174.705 96.5024C174.375 96.6069 173.93 96.672 173.351 96.672V98.672ZM175.308 98.4096C176.026 98.1827 176.585 97.6994 176.997 97.065L175.32 95.975C175.109 96.3006 174.899 96.4413 174.705 96.5024L175.308 98.4096ZM176.997 97.065C177.403 96.4406 177.711 95.564 177.959 94.5196L176.014 94.0564C175.782 95.028 175.538 95.6394 175.32 95.975L176.997 97.065ZM177.959 94.5196C178.212 93.4604 178.445 92.0515 178.663 90.308L176.678 90.06C176.464 91.7725 176.242 93.0996 176.014 94.0564L177.959 94.5196ZM177.518 91.1723L182.882 92.0003L183.187 90.0237L177.823 89.1957L177.518 91.1723ZM182.054 90.8159C181.931 91.431 181.82 92.0577 181.722 92.6959L183.699 93.0001C183.793 92.3903 183.898 91.793 184.015 91.2081L182.054 90.8159ZM181.722 92.6959C181.626 93.3246 181.541 93.9063 181.468 94.4409L183.449 94.7111C183.521 94.1897 183.604 93.6194 183.699 93.0001L181.722 92.6959ZM181.469 94.4346C181.393 94.9642 181.351 95.4352 181.351 95.836H183.351C183.351 95.5648 183.38 95.1958 183.449 94.7174L181.469 94.4346ZM181.351 95.836C181.351 96.3667 181.518 96.8571 181.807 97.2907L183.471 96.1813C183.376 96.0389 183.351 95.9293 183.351 95.836H181.351ZM181.807 97.2907C182.164 97.8267 182.723 98.1564 183.316 98.3639L183.977 96.4761C183.61 96.3476 183.497 96.2213 183.471 96.1813L181.807 97.2907ZM183.33 98.3687C183.982 98.5859 184.801 98.672 185.735 98.672V96.672C184.892 96.672 184.319 96.5901 183.963 96.4713L183.33 98.3687ZM185.735 98.672C186.955 98.672 188.094 98.4211 188.836 97.6407L187.386 96.2633C187.215 96.4429 186.771 96.672 185.735 96.672V98.672ZM188.818 97.6591C189.559 96.9174 189.831 95.8656 189.831 94.72H187.831C187.831 95.5904 187.622 96.0266 187.404 96.2449L188.818 97.6591ZM189.831 94.72C189.831 94.1773 189.818 93.5767 189.794 92.919L187.795 92.993C187.819 93.6313 187.831 94.2067 187.831 94.72H189.831ZM189.794 92.919C189.769 92.2503 189.72 91.5009 189.647 90.6721L187.654 90.8479C187.725 91.6511 187.772 92.3657 187.795 92.993L189.794 92.919ZM189.649 90.7013C189.599 89.8534 189.5 88.8911 189.353 87.8169L187.372 88.0871C187.513 89.1249 187.606 90.0346 187.652 90.8187L189.649 90.7013ZM188.438 88.9492L193.694 88.5532L193.543 86.5588L188.287 86.9548L188.438 88.9492ZM192.622 87.6344C192.791 89.7839 192.985 91.5535 193.207 92.9347L195.182 92.6173C194.972 91.3105 194.782 89.6001 194.616 87.4776L192.622 87.6344ZM193.211 92.9549C193.458 94.3149 193.779 95.4408 194.2 96.2832L195.989 95.3888C195.69 94.7912 195.411 93.8771 195.178 92.5971L193.211 92.9549ZM194.212 96.3066C194.681 97.1859 195.341 97.8625 196.217 98.233L196.996 96.391C196.624 96.2335 196.276 95.9261 195.977 95.3654L194.212 96.3066ZM196.248 98.2453C197.027 98.545 197.965 98.672 199.019 98.672V96.672C198.105 96.672 197.434 96.559 196.966 96.3787L196.248 98.2453ZM199.019 98.672C199.907 98.672 200.279 98.9001 200.441 99.0972L201.989 97.8308C201.286 96.9719 200.194 96.672 199.019 96.672V98.672ZM200.473 99.1349C200.741 99.4309 200.899 99.8173 200.899 100.372H202.899C202.899 99.3907 202.6 98.5051 201.956 97.7931L200.473 99.1349ZM200.899 100.372C200.899 100.936 200.72 101.34 200.379 101.665L201.762 103.111C202.526 102.38 202.899 101.44 202.899 100.372H200.899ZM200.364 101.681C200.093 101.951 199.592 102.18 198.659 102.18V104.18C199.885 104.18 200.992 103.881 201.778 103.095L200.364 101.681ZM198.659 102.18C198.151 102.18 197.572 102.127 196.921 102.015L196.581 103.985C197.321 104.113 198.015 104.18 198.659 104.18V102.18ZM196.892 102.01C196.323 101.929 195.729 101.754 195.108 101.475L194.29 103.301C195.06 103.646 195.834 103.879 196.609 103.99L196.892 102.01ZM195.146 101.494C194.595 101.218 194.066 100.816 193.561 100.27L192.092 101.626C192.739 102.328 193.458 102.886 194.251 103.282L195.146 101.494ZM193.588 100.3C193.145 99.78 192.743 99.0322 192.409 98.01L190.508 98.63C190.895 99.8158 191.404 100.82 192.065 101.596L193.588 100.3ZM191.142 99.2687L191.79 99.4847L192.423 97.5873L191.775 97.3713L191.142 99.2687ZM191.147 98.256C190.837 99.3174 190.436 100.088 189.979 100.621L191.498 101.923C192.193 101.112 192.704 100.059 193.067 98.816L191.147 98.256ZM189.979 100.621C189.52 101.157 188.947 101.552 188.239 101.807L188.918 103.689C189.938 103.32 190.805 102.731 191.498 101.923L189.979 100.621ZM188.262 101.799C187.532 102.043 186.578 102.18 185.375 102.18V104.18C186.715 104.18 187.897 104.029 188.895 103.697L188.262 101.799ZM185.375 102.18C184.364 102.18 183.483 102.037 182.718 101.769L182.055 103.655C183.066 104.011 184.177 104.18 185.375 104.18V102.18ZM182.718 101.769C182 101.516 181.46 101.123 181.059 100.596L179.466 101.804C180.122 102.669 180.997 103.284 182.055 103.655L182.718 101.769ZM181.082 100.627C180.731 100.126 180.507 99.3881 180.507 98.32H178.507C178.507 99.6519 178.786 100.834 179.443 101.773L181.082 100.627ZM179.507 99.32H180.731V97.32H179.507V99.32ZM179.789 97.9847C179.307 99.3382 178.785 100.271 178.259 100.855L179.746 102.193C180.516 101.337 181.146 100.134 181.673 98.6553L179.789 97.9847ZM178.258 100.856C177.771 101.4 177.182 101.75 176.468 101.919L176.929 103.865C178.039 103.602 178.987 103.04 179.747 102.192L178.258 100.856ZM176.487 101.915C175.695 102.086 174.633 102.18 173.279 102.18V104.18C174.708 104.18 175.926 104.082 176.91 103.869L176.487 101.915ZM173.279 102.18C172.473 102.18 171.678 102.082 170.893 101.886L170.408 103.826C171.351 104.062 172.309 104.18 173.279 104.18V102.18ZM170.9 101.888C170.259 101.723 169.661 101.372 169.102 100.793L167.663 102.183C168.448 102.996 169.362 103.557 170.402 103.824L170.9 101.888ZM169.102 100.793C168.6 100.274 168.143 99.3948 167.805 98.0415L165.864 98.5265C166.246 100.053 166.821 101.31 167.663 102.183L169.102 100.793ZM166.851 99.2839L169.083 99.2479L169.05 97.2481L166.818 97.2841L166.851 99.2839ZM168.137 97.8794C167.627 99.1648 167.006 100.045 166.315 100.601L167.57 102.159C168.607 101.323 169.402 100.115 169.996 98.6166L168.137 97.8794ZM166.315 100.601C165.57 101.202 164.721 101.617 163.758 101.847L164.223 103.793C165.468 103.495 166.588 102.95 167.57 102.159L166.315 100.601ZM163.774 101.844C162.777 102.065 161.651 102.18 160.391 102.18V104.18C161.77 104.18 163.044 104.055 164.208 103.796L163.774 101.844ZM198.711 103.18L197.713 103.115L197.643 104.18H198.711V103.18ZM199.071 97.672V96.672H198.134L198.073 97.6068L199.071 97.672ZM202.455 97.42L202.662 98.3982L202.677 98.3952L202.691 98.3919L202.455 97.42ZM204.075 96.52L204.892 97.0967L204.9 97.0858L204.907 97.0747L204.075 96.52ZM204.219 92.344L203.234 92.5164L203.236 92.5307L203.239 92.5449L204.219 92.344ZM203.535 89.392L202.568 89.6454L202.57 89.6561L202.573 89.6667L203.535 89.392ZM202.707 86.62L202.448 85.6542L201.414 85.9317L201.761 86.9443L202.707 86.62ZM208.071 85.18L209.014 84.8472L208.706 83.9742L207.812 84.2142L208.071 85.18ZM208.971 88.06L208.009 88.332L208.01 88.3375L208.971 88.06ZM209.727 91.444L208.74 91.6051L208.742 91.6149L208.743 91.6247L209.727 91.444ZM209.151 99.22L208.272 98.7425L208.269 98.7494L209.151 99.22ZM206.739 101.704L206.252 100.831L206.252 100.831L206.739 101.704ZM203.139 102.892L203.278 103.882L203.286 103.881L203.295 103.88L203.139 102.892ZM206.991 81.292L206.267 81.9817L206.275 81.9905L206.284 81.9991L206.991 81.292ZM206.991 77.656L206.284 76.9489L206.275 76.9575L206.267 76.9663L206.991 77.656ZM210.627 77.656L211.334 76.9489L211.334 76.9489L210.627 77.656ZM210.627 81.292L209.92 80.5849L209.92 80.5849L210.627 81.292ZM200.655 81.256L199.931 81.9457L199.939 81.9545L199.948 81.9631L200.655 81.256ZM200.655 77.62L199.948 76.9129L199.939 76.9215L199.931 76.9303L200.655 77.62ZM204.291 77.62L204.998 76.9129L204.998 76.9129L204.291 77.62ZM204.291 81.256L203.584 80.5489L203.584 80.5489L204.291 81.256ZM199.709 103.245L200.069 97.7372L198.073 97.6068L197.713 103.115L199.709 103.245ZM199.071 98.672C200.558 98.672 201.768 98.5879 202.662 98.3982L202.247 96.4418C201.558 96.5881 200.511 96.672 199.071 96.672V98.672ZM202.691 98.3919C203.579 98.1766 204.399 97.7944 204.892 97.0967L203.258 95.9433C203.174 96.0616 202.915 96.2794 202.219 96.4481L202.691 98.3919ZM204.907 97.0747C205.336 96.4311 205.507 95.6557 205.507 94.828H203.507C203.507 95.3923 203.39 95.7449 203.243 95.9653L204.907 97.0747ZM205.507 94.828C205.507 94.0227 205.4 93.1251 205.199 92.1431L203.239 92.5449C203.422 93.4349 203.507 94.1933 203.507 94.828H205.507ZM205.204 92.1716C205.029 91.1746 204.793 90.1565 204.496 89.1173L202.573 89.6667C202.853 90.6435 203.072 91.5934 203.234 92.5164L205.204 92.1716ZM204.502 89.1386C204.233 88.1107 203.95 87.1626 203.653 86.2957L201.761 86.9443C202.04 87.7574 202.309 88.6573 202.568 89.6454L204.502 89.1386ZM202.966 87.5858L208.33 86.1458L207.812 84.2142L202.448 85.6542L202.966 87.5858ZM207.128 85.5128C207.407 86.3035 207.701 87.2423 208.009 88.332L209.933 87.788C209.617 86.6697 209.311 85.6885 209.014 84.8472L207.128 85.5128ZM208.01 88.3375C208.311 89.3771 208.554 90.4661 208.74 91.6051L210.714 91.2829C210.516 90.0699 210.255 88.9029 209.932 87.7825L208.01 88.3375ZM208.743 91.6247C208.949 92.7433 209.051 93.8468 209.051 94.936H211.051C211.051 93.7212 210.937 92.4967 210.71 91.2633L208.743 91.6247ZM209.051 94.936C209.051 96.5835 208.767 97.8314 208.272 98.7425L210.03 99.6975C210.734 98.4006 211.051 96.7925 211.051 94.936H209.051ZM208.269 98.7494C207.779 99.6665 207.11 100.352 206.252 100.831L207.226 102.577C208.432 101.904 209.37 100.934 210.033 99.6906L208.269 98.7494ZM206.252 100.831C205.338 101.34 204.254 101.704 202.983 101.904L203.295 103.88C204.76 103.648 206.075 103.22 207.226 102.577L206.252 100.831ZM203 101.902C201.684 102.086 200.255 102.18 198.711 102.18V104.18C200.335 104.18 201.858 104.082 203.278 103.882L203 101.902ZM208.827 81.048C208.369 81.048 208.012 80.8992 207.698 80.5849L206.284 81.9991C206.977 82.6928 207.845 83.048 208.827 83.048V81.048ZM207.715 80.6023C207.412 80.2843 207.271 79.9312 207.271 79.492H205.271C205.271 80.4448 205.61 81.2917 206.267 81.9817L207.715 80.6023ZM207.271 79.492C207.271 79.019 207.419 78.6567 207.715 78.3457L206.267 76.9663C205.603 77.6633 205.271 78.525 205.271 79.492H207.271ZM207.698 78.3631C208.012 78.0488 208.369 77.9 208.827 77.9V75.9C207.845 75.9 206.977 76.2552 206.284 76.9489L207.698 78.3631ZM208.827 77.9C209.251 77.9 209.598 78.0416 209.92 78.3631L211.334 76.9489C210.648 76.2624 209.795 75.9 208.827 75.9V77.9ZM209.92 78.3631C210.234 78.6774 210.383 79.0342 210.383 79.492H212.383C212.383 78.5098 212.028 77.6426 211.334 76.9489L209.92 78.3631ZM210.383 79.492C210.383 79.9157 210.241 80.2634 209.92 80.5849L211.334 81.9991C212.021 81.3126 212.383 80.4603 212.383 79.492H210.383ZM209.92 80.5849C209.598 80.9064 209.251 81.048 208.827 81.048V83.048C209.795 83.048 210.648 82.6856 211.334 81.9991L209.92 80.5849ZM202.491 81.012C202.033 81.012 201.676 80.8632 201.362 80.5489L199.948 81.9631C200.641 82.6568 201.509 83.012 202.491 83.012V81.012ZM201.379 80.5663C201.076 80.2483 200.935 79.8952 200.935 79.456H198.935C198.935 80.4088 199.274 81.2557 199.931 81.9457L201.379 80.5663ZM200.935 79.456C200.935 78.983 201.083 78.6207 201.379 78.3097L199.931 76.9303C199.267 77.6273 198.935 78.489 198.935 79.456H200.935ZM201.362 78.3271C201.676 78.0128 202.033 77.864 202.491 77.864V75.864C201.509 75.864 200.641 76.2192 199.948 76.9129L201.362 78.3271ZM202.491 77.864C202.915 77.864 203.262 78.0056 203.584 78.3271L204.998 76.9129C204.312 76.2264 203.459 75.864 202.491 75.864V77.864ZM203.584 78.3271C203.898 78.6414 204.047 78.9982 204.047 79.456H206.047C206.047 78.4738 205.692 77.6066 204.998 76.9129L203.584 78.3271ZM204.047 79.456C204.047 79.8797 203.905 80.2274 203.584 80.5489L204.998 81.9631C205.685 81.2766 206.047 80.4243 206.047 79.456H204.047ZM203.584 80.5489C203.262 80.8704 202.915 81.012 202.491 81.012V83.012C203.459 83.012 204.312 82.6496 204.998 81.9631L203.584 80.5489Z" fill="black" mask="url(#path-2-inside-1_1_4)"/>
</g>
<defs>
<filter id="filter0_d_1_4" x="100.44" y="76.864" width="114.942" height="48.32" filterUnits="userSpaceOnUse" color-interpolation-filters="sRGB">
<feFlood flood-opacity="0" result="BackgroundImageFix"/>
<feColorMatrix in="SourceAlpha" type="matrix" values="0 0 0 0 0 0 0 0 0 0 0 0 0 0 0 0 0 0 127 0" result="hardAlpha"/>
<feOffset dy="4"/>
<feGaussianBlur stdDeviation="2"/>
<feComposite in2="hardAlpha" operator="out"/>
<feColorMatrix type="matrix" values="0 0 0 0 0 0 0 0 0 0 0 0 0 0 0 0 0 0 0.25 0"/>
<feBlend mode="normal" in2="BackgroundImageFix" result="effect1_dropShadow_1_4"/>
<feBlend mode="normal" in="SourceGraphic" in2="effect1_dropShadow_1_4" result="shape"/>
</filter>
</defs>
</svg>
