<svg width="403" height="249" viewBox="0 0 403 249" fill="none" xmlns="http://www.w3.org/2000/svg">
<rect width="403" height="249" fill="white"/>
<g filter="url(#filter0_d_3_4)">
<path d="M172.857 140.2C171.337 140.2 169.924 140.093 168.617 139.88C167.31 139.64 166.15 139.2 165.137 138.56C164.15 137.893 163.337 136.92 162.697 135.64C162.084 134.36 161.684 132.653 161.497 130.52L165.417 128.88C165.604 130.16 165.897 131.187 166.297 131.96C166.724 132.733 167.257 133.307 167.897 133.68C168.564 134.053 169.337 134.307 170.217 134.44C171.124 134.547 172.137 134.6 173.257 134.6C174.27 134.6 174.99 134.867 175.417 135.4C175.844 135.907 176.057 136.547 176.057 137.32C176.057 138.147 175.777 138.84 175.217 139.4C174.684 139.933 173.897 140.2 172.857 140.2ZM158.377 155.76C156.35 155.76 154.457 155.507 152.697 155C150.937 154.493 149.404 153.733 148.097 152.72C146.79 151.707 145.764 150.453 145.017 148.96C144.297 147.467 143.937 145.747 143.937 143.8C143.937 141.987 144.217 140.307 144.777 138.76C145.364 137.213 146.164 135.813 147.177 134.56C148.217 133.307 149.444 132.187 150.857 131.2C152.27 130.213 153.817 129.373 155.497 128.68C157.204 127.987 158.99 127.44 160.857 127.04L160.937 127.76C160.297 127.573 159.59 127.36 158.817 127.12C158.044 126.88 157.204 126.653 156.297 126.44C155.417 126.227 154.47 126.053 153.457 125.92C152.47 125.76 151.43 125.68 150.337 125.68C149.377 125.68 148.47 125.747 147.617 125.88C146.79 125.987 146.057 126.12 145.417 126.28L144.577 120.84C145.35 120.6 146.177 120.4 147.057 120.24C147.964 120.08 148.897 120 149.857 120C151.297 120 152.63 120.133 153.857 120.4C155.084 120.64 156.23 120.947 157.297 121.32C158.39 121.693 159.43 122.08 160.417 122.48C161.43 122.853 162.417 123.173 163.377 123.44C164.337 123.68 165.324 123.8 166.337 123.8H167.937L168.457 129.8C167.444 129.8 166.27 129.933 164.937 130.2C163.63 130.467 162.27 130.853 160.857 131.36C159.444 131.867 158.057 132.493 156.697 133.24C155.364 133.987 154.15 134.853 153.057 135.84C151.99 136.827 151.137 137.92 150.497 139.12C149.857 140.32 149.537 141.627 149.537 143.04C149.537 144.32 149.777 145.413 150.257 146.32C150.737 147.227 151.404 147.96 152.257 148.52C153.11 149.08 154.097 149.493 155.217 149.76C156.364 150.027 157.59 150.16 158.897 150.16C160.364 150.16 161.844 150 163.337 149.68C164.857 149.36 166.377 148.907 167.897 148.32L169.537 153.2C167.59 154.107 165.657 154.76 163.737 155.16C161.817 155.56 160.03 155.76 158.377 155.76ZM172.867 140.2L173.267 134.6C174.227 134.6 175.054 134.507 175.747 134.32C176.441 134.133 177.027 133.76 177.507 133.2C177.987 132.613 178.387 131.76 178.707 130.64C179.054 129.52 179.361 128.027 179.627 126.16L184.867 127.04C184.814 127.44 184.734 127.907 184.627 128.44C184.547 128.973 184.467 129.52 184.387 130.08C184.334 130.613 184.307 131.12 184.307 131.6C184.307 132.08 184.401 132.507 184.587 132.88C184.774 133.253 185.067 133.573 185.467 133.84C185.894 134.08 186.441 134.267 187.107 134.4C187.801 134.533 188.641 134.6 189.627 134.6C190.641 134.6 191.361 134.867 191.787 135.4C192.214 135.907 192.427 136.547 192.427 137.32C192.427 138.147 192.147 138.84 191.587 139.4C191.054 139.933 190.267 140.2 189.227 140.2C188.027 140.2 186.934 140.107 185.947 139.92C184.987 139.733 184.147 139.427 183.427 139C182.734 138.547 182.161 137.96 181.707 137.24C181.281 136.493 181.014 135.587 180.907 134.52H182.827C182.347 135.8 181.734 136.827 180.987 137.6C180.267 138.347 179.454 138.907 178.547 139.28C177.641 139.653 176.694 139.893 175.707 140C174.747 140.133 173.801 140.2 172.867 140.2ZM184.027 149.48C183.254 149.48 182.587 149.2 182.027 148.64C181.494 148.107 181.227 147.467 181.227 146.72C181.227 145.947 181.494 145.28 182.027 144.72C182.587 144.16 183.254 143.88 184.027 143.88C184.774 143.88 185.414 144.16 185.947 144.72C186.481 145.28 186.747 145.947 186.747 146.72C186.747 147.467 186.481 148.107 185.947 148.64C185.414 149.2 184.774 149.48 184.027 149.48ZM177.107 149.48C176.334 149.48 175.667 149.2 175.107 148.64C174.574 148.107 174.307 147.467 174.307 146.72C174.307 145.947 174.574 145.28 175.107 144.72C175.667 144.16 176.334 143.88 177.107 143.88C177.854 143.88 178.494 144.16 179.027 144.72C179.561 145.28 179.827 145.947 179.827 146.72C179.827 147.467 179.561 148.107 179.027 148.64C178.494 149.2 177.854 149.48 177.107 149.48ZM189.234 140.2L189.634 134.6C190.648 134.6 191.448 134.507 192.034 134.32C192.648 134.133 193.128 133.76 193.474 133.2C193.848 132.613 194.154 131.76 194.394 130.64C194.661 129.52 194.928 128.027 195.194 126.16L200.434 127.04C200.381 127.44 200.301 127.907 200.194 128.44C200.114 128.973 200.034 129.52 199.954 130.08C199.901 130.613 199.874 131.12 199.874 131.6C199.874 132.24 200.008 132.787 200.274 133.24C200.568 133.667 201.074 134 201.794 134.24C202.541 134.48 203.608 134.6 204.994 134.6C206.008 134.6 206.728 134.867 207.154 135.4C207.581 135.907 207.794 136.547 207.794 137.32C207.794 138.147 207.514 138.84 206.954 139.4C206.421 139.933 205.634 140.2 204.594 140.2C202.754 140.2 201.261 140.027 200.114 139.68C198.968 139.333 198.114 138.747 197.554 137.92C196.994 137.093 196.634 135.96 196.474 134.52H198.394C197.914 135.8 197.354 136.827 196.714 137.6C196.074 138.347 195.354 138.907 194.554 139.28C193.754 139.653 192.901 139.893 191.994 140C191.114 140.133 190.194 140.2 189.234 140.2ZM196.354 149.4C195.581 149.4 194.914 149.133 194.354 148.6C193.821 148.067 193.554 147.413 193.554 146.64C193.554 145.867 193.821 145.187 194.354 144.6C194.914 144.04 195.581 143.76 196.354 143.76C197.128 143.76 197.781 144.04 198.314 144.6C198.874 145.187 199.154 145.867 199.154 146.64C199.154 147.413 198.874 148.067 198.314 148.6C197.781 149.133 197.128 149.4 196.354 149.4ZM204.586 140.2L204.986 134.6C205.866 134.6 206.586 134.533 207.146 134.4C207.706 134.24 208.159 133.907 208.506 133.4C208.879 132.867 209.199 132.08 209.466 131.04C209.759 129.973 210.079 128.533 210.426 126.72L215.626 127.68C215.519 128.267 215.373 129 215.186 129.88C215.026 130.76 214.946 131.52 214.946 132.16C214.946 132.667 215.039 133.107 215.226 133.48C215.439 133.827 215.786 134.107 216.266 134.32C216.773 134.507 217.466 134.6 218.346 134.6C219.039 134.6 219.626 134.533 220.106 134.4C220.613 134.24 221.039 133.907 221.386 133.4C221.759 132.867 222.079 132.053 222.346 130.96C222.639 129.84 222.919 128.333 223.186 126.44L228.466 127.28C228.359 127.893 228.253 128.547 228.146 129.24C228.039 129.933 227.946 130.573 227.866 131.16C227.786 131.747 227.746 132.227 227.746 132.6C227.746 132.947 227.839 133.28 228.026 133.6C228.239 133.893 228.613 134.133 229.146 134.32C229.706 134.507 230.479 134.6 231.466 134.6C232.666 134.6 233.546 134.347 234.106 133.84C234.693 133.307 234.986 132.507 234.986 131.44C234.986 130.827 234.973 130.173 234.946 129.48C234.919 128.76 234.866 127.96 234.786 127.08C234.733 126.173 234.626 125.147 234.466 124L239.626 123.6C239.813 125.893 240.026 127.76 240.266 129.2C240.506 130.64 240.826 131.76 241.226 132.56C241.653 133.333 242.213 133.867 242.906 134.16C243.626 134.453 244.559 134.6 245.706 134.6C246.719 134.6 247.439 134.867 247.866 135.4C248.319 135.907 248.546 136.547 248.546 137.32C248.546 138.147 248.266 138.84 247.706 139.4C247.173 139.933 246.373 140.2 245.306 140.2C244.586 140.2 243.839 140.133 243.066 140C242.293 139.893 241.546 139.667 240.826 139.32C240.106 138.947 239.466 138.413 238.906 137.72C238.346 137.027 237.906 136.107 237.586 134.96L238.306 135.2C237.933 136.533 237.426 137.56 236.786 138.28C236.146 139 235.359 139.507 234.426 139.8C233.493 140.067 232.373 140.2 231.066 140.2C229.866 140.2 228.799 140.04 227.866 139.72C226.933 139.4 226.186 138.88 225.626 138.16C225.093 137.413 224.813 136.413 224.786 135.16H226.146C225.613 136.653 224.999 137.76 224.306 138.48C223.613 139.2 222.773 139.667 221.786 139.88C220.799 140.093 219.559 140.2 218.066 140.2C217.159 140.2 216.266 140.107 215.386 139.92C214.506 139.707 213.719 139.24 213.026 138.52C212.333 137.773 211.826 136.6 211.506 135L213.666 134.92C213.106 136.493 212.373 137.653 211.466 138.4C210.586 139.147 209.573 139.64 208.426 139.88C207.279 140.093 205.999 140.2 204.586 140.2ZM245.328 140.2L245.728 134.6C247.328 134.6 248.555 134.52 249.408 134.36C250.261 134.2 250.848 133.907 251.168 133.48C251.515 133.027 251.688 132.387 251.688 131.56C251.688 130.813 251.581 129.92 251.368 128.88C251.181 127.84 250.928 126.76 250.608 125.64C250.315 124.52 249.995 123.493 249.648 122.56L255.168 121.04C255.515 121.947 255.848 123 256.168 124.2C256.488 125.4 256.755 126.64 256.968 127.92C257.181 129.173 257.288 130.387 257.288 131.56C257.288 133.373 256.995 134.853 256.408 136C255.821 137.12 254.995 137.987 253.928 138.6C252.888 139.213 251.635 139.64 250.168 139.88C248.701 140.093 247.088 140.2 245.328 140.2ZM256.168 117.8C255.395 117.8 254.728 117.533 254.168 117C253.635 116.44 253.368 115.787 253.368 115.04C253.368 114.267 253.635 113.6 254.168 113.04C254.728 112.48 255.395 112.2 256.168 112.2C256.915 112.2 257.555 112.48 258.088 113.04C258.621 113.6 258.888 114.267 258.888 115.04C258.888 115.787 258.621 116.44 258.088 117C257.555 117.533 256.915 117.8 256.168 117.8ZM249.248 117.76C248.475 117.76 247.808 117.493 247.248 116.96C246.715 116.4 246.448 115.747 246.448 115C246.448 114.227 246.715 113.56 247.248 113C247.808 112.44 248.475 112.16 249.248 112.16C249.995 112.16 250.635 112.44 251.168 113C251.701 113.56 251.968 114.227 251.968 115C251.968 115.747 251.701 116.4 251.168 116.96C250.635 117.493 249.995 117.76 249.248 117.76Z" fill="black"/>
</g>
<defs>
<filter id="filter0_d_3_4" x="139.937" y="112.16" width="122.951" height="51.6" filterUnits="userSpaceOnUse" color-interpolation-filters="sRGB">
<feFlood flood-opacity="0" result="BackgroundImageFix"/>
<feColorMatrix in="SourceAlpha" type="matrix" values="0 0 0 0 0 0 0 0 0 0 0 0 0 0 0 0 0 0 127 0" result="hardAlpha"/>
<feOffset dy="4"/>
<feGaussianBlur stdDeviation="2"/>
<feComposite in2="hardAlpha" operator="out"/>
<feColorMatrix type="matrix" values="0 0 0 0 0 0 0 0 0 0 0 0 0 0 0 0 0 0 0.25 0"/>
<feBlend mode="normal" in2="BackgroundImageFix" result="effect1_dropShadow_3_4"/>
<feBlend mode="normal" in="SourceGraphic" in2="effect1_dropShadow_3_4" result="shape"/>
</filter>
</defs>
</svg>
