<svg width="315" height="194" viewBox="0 0 403 249" fill="none" xmlns="http://www.w3.org/2000/svg">
<rect width="403" height="249" fill="white"/>
<path d="M116.969 117.4V112.8H136.969V117.4H129.369V140H124.569V117.4H116.969ZM154.881 128.64V131.04C154.881 133.867 154.108 136.133 152.561 137.84C151.014 139.547 148.828 140.4 146.001 140.4C143.174 140.4 140.988 139.547 139.441 137.84C137.894 136.133 137.121 133.867 137.121 131.04V128.64C137.121 125.813 137.881 123.56 139.401 121.88C140.948 120.173 143.148 119.32 146.001 119.32C148.854 119.32 151.041 120.173 152.561 121.88C154.108 123.56 154.881 125.813 154.881 128.64ZM150.161 128.64C150.161 127.013 149.801 125.747 149.081 124.84C148.361 123.907 147.334 123.44 146.001 123.44C144.668 123.44 143.641 123.907 142.921 124.84C142.201 125.747 141.841 127.013 141.841 128.64V131.04C141.841 132.667 142.201 133.947 142.921 134.88C143.641 135.813 144.668 136.28 146.001 136.28C147.334 136.28 148.361 135.813 149.081 134.88C149.801 133.947 150.161 132.667 150.161 131.04V128.64ZM168.647 140V112.8H177.847C181.1 112.8 183.58 113.707 185.287 115.52C186.993 117.333 187.847 120 187.847 123.52V129.24C187.847 132.787 186.993 135.467 185.287 137.28C183.58 139.093 181.1 140 177.847 140H168.647ZM177.647 117.4H173.447V135.4H177.647C179.54 135.4 180.887 134.933 181.687 134C182.513 133.067 182.927 131.48 182.927 129.24V123.52C182.927 121.307 182.513 119.733 181.687 118.8C180.887 117.867 179.54 117.4 177.647 117.4ZM210.194 128.64V131.04C210.194 133.867 209.42 136.133 207.874 137.84C206.327 139.547 204.14 140.4 201.314 140.4C198.487 140.4 196.3 139.547 194.754 137.84C193.207 136.133 192.434 133.867 192.434 131.04V128.64C192.434 125.813 193.194 123.56 194.714 121.88C196.26 120.173 198.46 119.32 201.314 119.32C204.167 119.32 206.354 120.173 207.874 121.88C209.42 123.56 210.194 125.813 210.194 128.64ZM205.474 128.64C205.474 127.013 205.114 125.747 204.394 124.84C203.674 123.907 202.647 123.44 201.314 123.44C199.98 123.44 198.954 123.907 198.234 124.84C197.514 125.747 197.154 127.013 197.154 128.64V131.04C197.154 132.667 197.514 133.947 198.234 134.88C198.954 135.813 199.98 136.28 201.314 136.28C202.647 136.28 203.674 135.813 204.394 134.88C205.114 133.947 205.474 132.667 205.474 131.04V128.64ZM239.639 135.4V140H223.959V112.8H228.759V135.4H239.639ZM248.353 115.88H243.513V111.12H248.353V115.88ZM248.233 140H243.633V119.72H248.233V140ZM260.25 136.4C261.237 136.4 262.05 136.24 262.69 135.92C263.33 135.573 263.65 135.067 263.65 134.4C263.65 133.813 263.437 133.36 263.01 133.04C262.61 132.693 261.877 132.387 260.81 132.12L258.53 131.52C256.77 131.067 255.463 130.307 254.61 129.24C253.783 128.173 253.37 126.907 253.37 125.44C253.37 123.707 253.97 122.253 255.17 121.08C256.37 119.907 258.223 119.32 260.73 119.32C261.743 119.32 262.81 119.44 263.93 119.68C265.05 119.92 266.223 120.307 267.45 120.84L266.13 124.76C265.01 124.227 263.997 123.853 263.09 123.64C262.183 123.427 261.383 123.32 260.69 123.32C258.797 123.32 257.85 123.96 257.85 125.24C257.85 125.747 258.01 126.147 258.33 126.44C258.677 126.733 259.303 127 260.21 127.24L262.49 127.84C264.437 128.347 265.85 129.12 266.73 130.16C267.637 131.2 268.09 132.507 268.09 134.08C268.09 135.947 267.45 137.467 266.17 138.64C264.917 139.813 262.93 140.4 260.21 140.4C257.89 140.4 255.45 139.867 252.89 138.8L254.13 135C255.383 135.507 256.517 135.867 257.53 136.08C258.543 136.293 259.45 136.4 260.25 136.4ZM285.012 139.32C284.319 139.64 283.519 139.893 282.612 140.08C281.706 140.293 280.786 140.4 279.852 140.4C278.306 140.4 277.066 140.08 276.132 139.44C275.199 138.8 274.519 137.907 274.092 136.76C273.692 135.613 273.492 134.307 273.492 132.84V123.72H270.212V119.72H273.492V114.44H278.092V119.72H284.412V123.72H278.092V132.84C278.092 134.067 278.319 134.92 278.772 135.4C279.252 135.853 279.932 136.08 280.812 136.08C281.239 136.08 281.692 136.04 282.172 135.96C282.679 135.853 283.239 135.68 283.852 135.44L285.012 139.32Z" fill="black"/>
</svg>
