<svg width="403" height="249" viewBox="0 0 403 249" fill="none" xmlns="http://www.w3.org/2000/svg">
<rect width="403" height="249" fill="white"/>
<g filter="url(#filter0_d_3_4)">
<path d="M93.4014 140.84L94.4414 135.24C96.9747 135.267 99.0147 135.2 100.561 135.04C102.135 134.853 103.321 134.52 104.121 134.04C104.948 133.533 105.481 132.827 105.721 131.92C105.988 130.987 106.081 129.8 106.001 128.36L105.121 110.72H110.721L111.601 128.64C111.681 130.24 111.868 131.467 112.161 132.32C112.455 133.173 112.895 133.773 113.481 134.12C114.068 134.44 114.841 134.6 115.801 134.6C116.788 134.6 117.495 134.867 117.921 135.4C118.375 135.907 118.601 136.547 118.601 137.32C118.601 138.147 118.321 138.84 117.761 139.4C117.201 139.933 116.415 140.2 115.401 140.2C114.228 140.2 113.175 140.053 112.241 139.76C111.308 139.467 110.535 138.96 109.921 138.24C109.308 137.493 108.895 136.493 108.681 135.24H110.481C109.868 136.547 109.028 137.587 107.961 138.36C106.921 139.133 105.668 139.693 104.201 140.04C102.761 140.413 101.135 140.64 99.3214 140.72C97.5081 140.827 95.5347 140.867 93.4014 140.84ZM91.4814 131.36L90.4414 127.4C91.3747 127.16 92.1347 126.947 92.7214 126.76C93.3347 126.573 93.7881 126.387 94.0814 126.2C94.3747 126.013 94.5214 125.827 94.5214 125.64C94.5214 125.4 94.4014 125.147 94.1614 124.88C93.9214 124.613 93.6547 124.307 93.3614 123.96C93.0681 123.613 92.8014 123.227 92.5614 122.8C92.3214 122.373 92.2014 121.88 92.2014 121.32C92.2014 120.653 92.3881 120.027 92.7614 119.44C93.1347 118.827 93.7347 118.24 94.5614 117.68C95.4147 117.093 96.5347 116.52 97.9214 115.96L99.6414 119.52C98.5214 119.973 97.7614 120.373 97.3614 120.72C96.9881 121.04 96.8014 121.347 96.8014 121.64C96.8014 121.88 96.9214 122.16 97.1614 122.48C97.4014 122.8 97.6681 123.16 97.9614 123.56C98.2814 123.933 98.5614 124.36 98.8014 124.84C99.0414 125.293 99.1614 125.787 99.1614 126.32C99.1614 126.747 99.0681 127.187 98.8814 127.64C98.7214 128.093 98.3747 128.533 97.8414 128.96C97.3347 129.387 96.5747 129.8 95.5614 130.2C94.5481 130.6 93.1881 130.987 91.4814 131.36ZM93.4014 140.84C90.5214 140.84 88.0814 140.613 86.0814 140.16C84.1081 139.733 82.4947 139.12 81.2414 138.32C80.0147 137.493 79.1214 136.533 78.5614 135.44C78.0014 134.347 77.7214 133.147 77.7214 131.84C77.7214 130.987 77.7881 130.133 77.9214 129.28C78.0814 128.4 78.2681 127.547 78.4814 126.72C78.7214 125.893 78.9347 125.147 79.1214 124.48L84.1214 125.64C84.0147 126.12 83.8947 126.64 83.7614 127.2C83.6281 127.76 83.5214 128.307 83.4414 128.84C83.3614 129.347 83.3214 129.813 83.3214 130.24C83.3214 131.227 83.6681 132.107 84.3614 132.88C85.0814 133.627 86.2547 134.213 87.8814 134.64C89.5081 135.04 91.6947 135.24 94.4414 135.24L95.2414 139.56L93.4014 140.84ZM115.387 140.2L115.787 134.6C117.013 134.6 117.893 134.48 118.427 134.24C118.96 133.973 119.28 133.493 119.387 132.8C119.493 132.08 119.52 131.04 119.467 129.68L118.747 110.72H124.387L125.187 130.08C125.24 131.627 125.173 133.027 124.987 134.28C124.827 135.507 124.413 136.56 123.747 137.44C123.107 138.32 122.107 139 120.747 139.48C119.413 139.96 117.627 140.2 115.387 140.2ZM135.982 134.6C137.182 134.6 138.102 134.493 138.742 134.28C139.382 134.067 139.822 133.787 140.062 133.44C140.302 133.093 140.422 132.72 140.422 132.32C140.422 131.68 140.235 130.933 139.862 130.08C139.515 129.227 139.075 128.333 138.542 127.4C138.008 126.467 137.448 125.573 136.862 124.72C136.302 123.867 135.795 123.12 135.342 122.48L140.102 119.32C141.248 120.867 142.235 122.4 143.062 123.92C143.888 125.413 144.555 126.8 145.062 128.08C145.595 129.36 145.968 130.453 146.182 131.36C146.395 132.213 146.715 132.88 147.142 133.36C147.595 133.813 148.115 134.133 148.702 134.32C149.288 134.507 149.875 134.6 150.462 134.6C151.475 134.6 152.195 134.867 152.622 135.4C153.075 135.907 153.302 136.547 153.302 137.32C153.302 138.147 153.022 138.84 152.462 139.4C151.928 139.933 151.128 140.2 150.062 140.2C148.888 140.2 147.862 140.04 146.982 139.72C146.102 139.4 145.355 138.893 144.742 138.2C144.128 137.507 143.608 136.627 143.182 135.56L145.622 136.08C145.408 136.827 144.915 137.52 144.142 138.16C143.395 138.773 142.395 139.28 141.142 139.68C139.915 140.053 138.462 140.24 136.782 140.24C135.982 140.24 135.088 140.173 134.102 140.04C133.142 139.907 132.182 139.707 131.222 139.44C130.288 139.173 129.435 138.827 128.662 138.4L130.622 133.32C131.608 133.747 132.555 134.067 133.462 134.28C134.395 134.493 135.235 134.6 135.982 134.6ZM149.953 140.2L150.353 134.6C152.22 134.6 153.9 134.48 155.393 134.24C156.887 133.973 158.193 133.627 159.313 133.2C160.46 132.773 161.407 132.28 162.153 131.72C162.927 131.16 163.5 130.573 163.873 129.96C164.273 129.32 164.473 128.693 164.473 128.08C164.473 127.733 164.38 127.413 164.193 127.12C164.033 126.8 163.753 126.547 163.353 126.36C162.953 126.147 162.407 126.04 161.713 126.04C161.367 126.04 160.953 126.08 160.473 126.16C159.993 126.24 159.513 126.36 159.033 126.52C158.553 126.653 158.1 126.84 157.673 127.08C158.233 127.507 158.847 128.053 159.513 128.72C160.18 129.36 160.847 130.04 161.513 130.76C162.18 131.453 162.753 132.133 163.233 132.8C163.793 133.04 164.407 133.28 165.073 133.52C165.767 133.733 166.513 133.92 167.313 134.08C168.113 134.24 168.953 134.373 169.833 134.48C170.713 134.56 171.62 134.6 172.553 134.6C173.567 134.6 174.287 134.867 174.713 135.4C175.167 135.907 175.393 136.547 175.393 137.32C175.393 138.147 175.113 138.84 174.553 139.4C173.993 139.933 173.193 140.2 172.153 140.2C170.02 140.2 168.127 140.04 166.473 139.72C164.82 139.373 163.34 138.88 162.033 138.24C160.753 137.573 159.553 136.773 158.433 135.84C158.113 135.28 157.66 134.68 157.073 134.04C156.513 133.373 155.913 132.733 155.273 132.12C154.66 131.507 154.1 131 153.593 130.6C153.46 130.493 153.3 130.213 153.113 129.76C152.953 129.28 152.807 128.787 152.673 128.28C152.54 127.747 152.473 127.373 152.473 127.16C152.473 126.547 152.753 125.893 153.313 125.2C153.9 124.507 154.673 123.867 155.633 123.28C156.62 122.667 157.7 122.173 158.873 121.8C160.073 121.4 161.287 121.2 162.513 121.2C164.167 121.2 165.54 121.453 166.633 121.96C167.753 122.44 168.593 123.12 169.153 124C169.713 124.853 169.993 125.853 169.993 127C169.993 128.28 169.713 129.56 169.153 130.84C168.593 132.093 167.767 133.28 166.673 134.4C165.607 135.52 164.26 136.52 162.633 137.4C161.033 138.253 159.167 138.933 157.033 139.44C154.927 139.947 152.567 140.2 149.953 140.2ZM172.184 140.2L172.584 134.6C173.197 134.6 173.717 134.453 174.144 134.16C174.597 133.84 175.064 133.32 175.544 132.6C176.024 131.853 176.584 130.853 177.224 129.6C178.024 128 178.85 126.747 179.704 125.84C180.584 124.933 181.477 124.293 182.384 123.92C183.317 123.52 184.25 123.32 185.184 123.32C186.357 123.32 187.45 123.573 188.464 124.08C189.477 124.587 190.357 125.28 191.104 126.16C191.85 127.013 192.424 128 192.824 129.12C193.25 130.213 193.464 131.347 193.464 132.52C193.464 133.933 193.157 135.213 192.544 136.36C191.957 137.48 191.13 138.373 190.064 139.04C189.024 139.68 187.824 140 186.464 140C185.317 140 183.984 139.8 182.464 139.4C180.944 139 179.344 138.16 177.664 136.88L179.704 132.04C180.904 132.867 182.024 133.467 183.064 133.84C184.13 134.213 185.01 134.4 185.704 134.4C186.237 134.4 186.677 134.347 187.024 134.24C187.37 134.133 187.624 133.96 187.784 133.72C187.944 133.48 188.024 133.16 188.024 132.76C188.024 132.2 187.89 131.627 187.624 131.04C187.357 130.453 186.997 129.96 186.544 129.56C186.117 129.133 185.61 128.92 185.024 128.92C184.464 128.92 183.984 129.133 183.584 129.56C183.21 129.96 182.837 130.547 182.464 131.32C182.117 132.067 181.69 132.947 181.184 133.96C180.57 135.187 179.97 136.213 179.384 137.04C178.797 137.84 178.17 138.48 177.504 138.96C176.864 139.413 176.104 139.733 175.224 139.92C174.37 140.107 173.357 140.2 172.184 140.2ZM221.059 140.84L222.099 135.24C224.019 135.24 225.859 135.147 227.619 134.96C229.405 134.773 231.099 134.4 232.699 133.84C234.325 133.28 235.845 132.453 237.259 131.36C238.672 130.267 239.952 128.8 241.099 126.96L245.579 129C245.419 129.507 245.285 130 245.179 130.48C245.072 130.933 245.019 131.307 245.019 131.6C245.019 132.213 245.165 132.747 245.459 133.2C245.779 133.653 246.312 134 247.059 134.24C247.805 134.48 248.832 134.6 250.139 134.6C251.152 134.6 251.872 134.867 252.299 135.4C252.725 135.907 252.939 136.547 252.939 137.32C252.939 138.147 252.659 138.84 252.099 139.4C251.565 139.933 250.779 140.2 249.739 140.2C247.899 140.2 246.299 139.947 244.939 139.44C243.605 138.933 242.552 138.227 241.779 137.32C241.032 136.387 240.592 135.32 240.459 134.12L242.059 134.28C241.099 135.427 239.899 136.413 238.459 137.24C237.045 138.067 235.432 138.747 233.619 139.28C231.832 139.813 229.872 140.2 227.739 140.44C225.632 140.707 223.405 140.84 221.059 140.84ZM221.019 140.84C218.139 140.84 215.699 140.613 213.699 140.16C211.725 139.733 210.112 139.12 208.859 138.32C207.632 137.493 206.739 136.533 206.179 135.44C205.619 134.347 205.339 133.147 205.339 131.84C205.339 130.987 205.405 130.133 205.539 129.28C205.699 128.4 205.885 127.547 206.099 126.72C206.339 125.893 206.552 125.147 206.739 124.48L211.739 125.64C211.632 126.12 211.512 126.64 211.379 127.2C211.245 127.76 211.139 128.307 211.059 128.84C210.979 129.347 210.939 129.813 210.939 130.24C210.939 131.227 211.285 132.107 211.979 132.88C212.699 133.627 213.872 134.213 215.499 134.64C217.125 135.04 219.312 135.24 222.059 135.24L222.859 139.56L221.019 140.84ZM223.899 150.2C223.125 150.2 222.459 149.933 221.899 149.4C221.365 148.867 221.099 148.213 221.099 147.44C221.099 146.667 221.365 145.987 221.899 145.4C222.459 144.84 223.125 144.56 223.899 144.56C224.672 144.56 225.325 144.84 225.859 145.4C226.419 145.987 226.699 146.667 226.699 147.44C226.699 148.213 226.419 148.867 225.859 149.4C225.325 149.933 224.672 150.2 223.899 150.2ZM249.723 140.2L250.123 134.6C251.003 134.6 251.723 134.533 252.283 134.4C252.843 134.24 253.296 133.907 253.643 133.4C254.016 132.867 254.336 132.08 254.603 131.04C254.896 129.973 255.216 128.533 255.563 126.72L260.763 127.68C260.656 128.267 260.509 129 260.323 129.88C260.163 130.76 260.083 131.52 260.083 132.16C260.083 132.667 260.176 133.107 260.363 133.48C260.576 133.827 260.923 134.107 261.403 134.32C261.909 134.507 262.603 134.6 263.483 134.6C264.176 134.6 264.763 134.533 265.243 134.4C265.749 134.24 266.176 133.907 266.523 133.4C266.896 132.867 267.216 132.053 267.483 130.96C267.776 129.84 268.056 128.333 268.323 126.44L273.603 127.28C273.496 127.893 273.389 128.547 273.283 129.24C273.176 129.933 273.083 130.573 273.003 131.16C272.923 131.747 272.883 132.227 272.883 132.6C272.883 132.947 272.976 133.28 273.163 133.6C273.376 133.893 273.749 134.133 274.283 134.32C274.843 134.507 275.616 134.6 276.603 134.6C277.803 134.6 278.683 134.347 279.243 133.84C279.829 133.307 280.123 132.507 280.123 131.44C280.123 130.827 280.109 130.173 280.083 129.48C280.056 128.76 280.003 127.96 279.923 127.08C279.869 126.173 279.763 125.147 279.603 124L284.763 123.6C284.949 125.893 285.163 127.76 285.403 129.2C285.643 130.64 285.963 131.76 286.363 132.56C286.789 133.333 287.349 133.867 288.043 134.16C288.763 134.453 289.696 134.6 290.843 134.6C291.856 134.6 292.576 134.867 293.003 135.4C293.456 135.907 293.683 136.547 293.683 137.32C293.683 138.147 293.403 138.84 292.843 139.4C292.309 139.933 291.509 140.2 290.443 140.2C289.723 140.2 288.976 140.133 288.203 140C287.429 139.893 286.683 139.667 285.963 139.32C285.243 138.947 284.603 138.413 284.043 137.72C283.483 137.027 283.043 136.107 282.723 134.96L283.443 135.2C283.069 136.533 282.563 137.56 281.923 138.28C281.283 139 280.496 139.507 279.563 139.8C278.629 140.067 277.509 140.2 276.203 140.2C275.003 140.2 273.936 140.04 273.003 139.72C272.069 139.4 271.323 138.88 270.763 138.16C270.229 137.413 269.949 136.413 269.923 135.16H271.283C270.749 136.653 270.136 137.76 269.443 138.48C268.749 139.2 267.909 139.667 266.923 139.88C265.936 140.093 264.696 140.2 263.203 140.2C262.296 140.2 261.403 140.107 260.523 139.92C259.643 139.707 258.856 139.24 258.163 138.52C257.469 137.773 256.963 136.6 256.643 135L258.803 134.92C258.243 136.493 257.509 137.653 256.603 138.4C255.723 139.147 254.709 139.64 253.563 139.88C252.416 140.093 251.136 140.2 249.723 140.2ZM290.465 140.2L290.865 134.6C292.305 134.6 293.732 134.52 295.145 134.36C296.558 134.2 297.932 133.96 299.265 133.64C300.598 133.32 301.865 132.907 303.065 132.4C304.292 131.893 305.438 131.28 306.505 130.56C305.705 130.08 304.838 129.667 303.905 129.32C302.972 128.973 301.972 128.72 300.905 128.56C299.865 128.373 298.758 128.28 297.585 128.28C297.158 128.28 296.705 128.293 296.225 128.32C295.772 128.347 295.305 128.4 294.825 128.48C294.345 128.533 293.865 128.613 293.385 128.72L292.585 123.24C293.358 123.027 294.172 122.88 295.025 122.8C295.905 122.693 296.678 122.64 297.345 122.64C298.785 122.64 300.105 122.8 301.305 123.12C302.532 123.44 303.652 123.84 304.665 124.32C305.705 124.8 306.665 125.28 307.545 125.76C308.452 126.24 309.305 126.64 310.105 126.96C310.932 127.28 311.732 127.44 312.505 127.44H313.985L314.625 132.76C313.478 132.813 312.398 133.04 311.385 133.44C310.398 133.813 309.412 134.293 308.425 134.88C307.465 135.44 306.425 136.027 305.305 136.64C304.212 137.253 302.972 137.827 301.585 138.36C300.198 138.893 298.598 139.333 296.785 139.68C294.972 140.027 292.865 140.2 290.465 140.2ZM318.821 140L317.981 110.72H323.581L324.421 140H318.821Z" fill="black"/>
</g>
<defs>
<filter id="filter0_d_3_4" x="73.7214" y="110.72" width="254.7" height="47.48" filterUnits="userSpaceOnUse" color-interpolation-filters="sRGB">
<feFlood flood-opacity="0" result="BackgroundImageFix"/>
<feColorMatrix in="SourceAlpha" type="matrix" values="0 0 0 0 0 0 0 0 0 0 0 0 0 0 0 0 0 0 127 0" result="hardAlpha"/>
<feOffset dy="4"/>
<feGaussianBlur stdDeviation="2"/>
<feComposite in2="hardAlpha" operator="out"/>
<feColorMatrix type="matrix" values="0 0 0 0 0 0 0 0 0 0 0 0 0 0 0 0 0 0 0.25 0"/>
<feBlend mode="normal" in2="BackgroundImageFix" result="effect1_dropShadow_3_4"/>
<feBlend mode="normal" in="SourceGraphic" in2="effect1_dropShadow_3_4" result="shape"/>
</filter>
</defs>
</svg>
