<svg width="403" height="249" viewBox="0 0 403 249" fill="none" xmlns="http://www.w3.org/2000/svg">
<rect width="403" height="249" fill="white"/>
<g filter="url(#filter0_d_3_4)">
<path d="M106.324 116.619V110.909H130.912V116.619H122.091V140H115.159V116.619H106.324ZM141.367 140.412C139.075 140.412 137.105 139.943 135.458 139.006C133.819 138.059 132.555 136.742 131.665 135.057C130.784 133.362 130.344 131.397 130.344 129.162C130.344 126.918 130.784 124.953 131.665 123.267C132.555 121.572 133.819 120.256 135.458 119.318C137.105 118.371 139.075 117.898 141.367 117.898C143.658 117.898 145.623 118.371 147.262 119.318C148.909 120.256 150.174 121.572 151.054 123.267C151.944 124.953 152.39 126.918 152.39 129.162C152.39 131.397 151.944 133.362 151.054 135.057C150.174 136.742 148.909 138.059 147.262 139.006C145.623 139.943 143.658 140.412 141.367 140.412ZM141.409 135.17C142.243 135.17 142.948 134.915 143.526 134.403C144.104 133.892 144.544 133.182 144.847 132.273C145.159 131.364 145.316 130.312 145.316 129.119C145.316 127.907 145.159 126.847 144.847 125.938C144.544 125.028 144.104 124.318 143.526 123.807C142.948 123.295 142.243 123.04 141.409 123.04C140.548 123.04 139.819 123.295 139.222 123.807C138.635 124.318 138.185 125.028 137.873 125.938C137.569 126.847 137.418 127.907 137.418 129.119C137.418 130.312 137.569 131.364 137.873 132.273C138.185 133.182 138.635 133.892 139.222 134.403C139.819 134.915 140.548 135.17 141.409 135.17ZM175.294 140H164.542V110.909H175.28C178.244 110.909 180.796 111.491 182.936 112.656C185.086 113.812 186.743 115.478 187.908 117.656C189.073 119.825 189.655 122.42 189.655 125.44C189.655 128.471 189.073 131.075 187.908 133.253C186.753 135.431 185.1 137.102 182.951 138.267C180.801 139.422 178.249 140 175.294 140ZM171.573 134.006H175.025C176.653 134.006 178.031 133.731 179.158 133.182C180.294 132.623 181.151 131.719 181.729 130.469C182.316 129.209 182.61 127.533 182.61 125.44C182.61 123.348 182.316 121.681 181.729 120.44C181.142 119.19 180.275 118.291 179.13 117.741C177.993 117.183 176.592 116.903 174.925 116.903H171.573V134.006ZM203.945 140.412C201.653 140.412 199.684 139.943 198.036 139.006C196.398 138.059 195.133 136.742 194.243 135.057C193.363 133.362 192.922 131.397 192.922 129.162C192.922 126.918 193.363 124.953 194.243 123.267C195.133 121.572 196.398 120.256 198.036 119.318C199.684 118.371 201.653 117.898 203.945 117.898C206.237 117.898 208.202 118.371 209.84 119.318C211.488 120.256 212.752 121.572 213.632 123.267C214.523 124.953 214.968 126.918 214.968 129.162C214.968 131.397 214.523 133.362 213.632 135.057C212.752 136.742 211.488 138.059 209.84 139.006C208.202 139.943 206.237 140.412 203.945 140.412ZM203.988 135.17C204.821 135.17 205.526 134.915 206.104 134.403C206.682 133.892 207.122 133.182 207.425 132.273C207.738 131.364 207.894 130.312 207.894 129.119C207.894 127.907 207.738 126.847 207.425 125.938C207.122 125.028 206.682 124.318 206.104 123.807C205.526 123.295 204.821 123.04 203.988 123.04C203.126 123.04 202.397 123.295 201.8 123.807C201.213 124.318 200.763 125.028 200.451 125.938C200.148 126.847 199.996 127.907 199.996 129.119C199.996 130.312 200.148 131.364 200.451 132.273C200.763 133.182 201.213 133.892 201.8 134.403C202.397 134.915 203.126 135.17 203.988 135.17ZM227.12 140V110.909H234.151V134.29H246.253V140H227.12ZM249.893 140V118.182H256.839V140H249.893ZM253.373 115.639C252.398 115.639 251.56 115.317 250.859 114.673C250.158 114.02 249.808 113.234 249.808 112.315C249.808 111.406 250.158 110.63 250.859 109.986C251.56 109.332 252.398 109.006 253.373 109.006C254.358 109.006 255.196 109.332 255.887 109.986C256.588 110.63 256.939 111.406 256.939 112.315C256.939 113.234 256.588 114.02 255.887 114.673C255.196 115.317 254.358 115.639 253.373 115.639ZM280.309 124.844L273.931 125.014C273.864 124.56 273.685 124.157 273.391 123.807C273.097 123.447 272.714 123.168 272.24 122.969C271.776 122.76 271.237 122.656 270.621 122.656C269.816 122.656 269.13 122.817 268.561 123.139C268.003 123.461 267.728 123.897 267.738 124.446C267.728 124.872 267.899 125.241 268.249 125.554C268.609 125.866 269.248 126.117 270.167 126.307L274.371 127.102C276.549 127.519 278.168 128.21 279.229 129.176C280.299 130.142 280.839 131.42 280.848 133.011C280.839 134.508 280.394 135.81 279.513 136.918C278.642 138.026 277.449 138.887 275.934 139.503C274.418 140.109 272.685 140.412 270.735 140.412C267.619 140.412 265.162 139.773 263.363 138.494C261.573 137.206 260.55 135.483 260.294 133.324L267.155 133.153C267.307 133.949 267.7 134.555 268.334 134.972C268.969 135.388 269.778 135.597 270.763 135.597C271.653 135.597 272.378 135.431 272.936 135.099C273.495 134.768 273.779 134.328 273.789 133.778C273.779 133.286 273.561 132.893 273.135 132.599C272.709 132.296 272.042 132.06 271.132 131.889L267.326 131.165C265.138 130.767 263.509 130.033 262.439 128.963C261.369 127.884 260.839 126.51 260.848 124.844C260.839 123.385 261.227 122.14 262.013 121.108C262.799 120.066 263.917 119.271 265.365 118.722C266.814 118.172 268.524 117.898 270.493 117.898C273.448 117.898 275.777 118.518 277.482 119.759C279.186 120.99 280.129 122.685 280.309 124.844ZM296.583 118.182V123.295H282.819V118.182H296.583ZM285.703 112.955H292.649V133.139C292.649 133.565 292.715 133.911 292.848 134.176C292.99 134.432 293.193 134.616 293.458 134.73C293.724 134.834 294.041 134.886 294.41 134.886C294.675 134.886 294.955 134.863 295.248 134.815C295.551 134.759 295.779 134.711 295.93 134.673L296.981 139.688C296.65 139.782 296.181 139.901 295.575 140.043C294.978 140.185 294.263 140.275 293.43 140.312C291.801 140.388 290.404 140.199 289.24 139.744C288.084 139.28 287.199 138.561 286.583 137.585C285.977 136.61 285.684 135.384 285.703 133.906V112.955Z" fill="black"/>
</g>
<defs>
<filter id="filter0_d_3_4" x="102.324" y="109.006" width="198.657" height="39.4205" filterUnits="userSpaceOnUse" color-interpolation-filters="sRGB">
<feFlood flood-opacity="0" result="BackgroundImageFix"/>
<feColorMatrix in="SourceAlpha" type="matrix" values="0 0 0 0 0 0 0 0 0 0 0 0 0 0 0 0 0 0 127 0" result="hardAlpha"/>
<feOffset dy="4"/>
<feGaussianBlur stdDeviation="2"/>
<feComposite in2="hardAlpha" operator="out"/>
<feColorMatrix type="matrix" values="0 0 0 0 0 0 0 0 0 0 0 0 0 0 0 0 0 0 0.25 0"/>
<feBlend mode="normal" in2="BackgroundImageFix" result="effect1_dropShadow_3_4"/>
<feBlend mode="normal" in="SourceGraphic" in2="effect1_dropShadow_3_4" result="shape"/>
</filter>
</defs>
</svg>
