<!DOCTYPE svg PUBLIC "-//W3C//DTD SVG 1.1//EN" "http://www.w3.org/Graphics/SVG/1.1/DTD/svg11.dtd">
<!-- Uploaded to: SVG Repo, www.svgrepo.com, Transformed by: SVG Repo Mixer Tools -->
<svg fill="#ffffff" width="89px" height="89px" viewBox="-2.4 -2.4 28.80 28.80" xmlns="http://www.w3.org/2000/svg" transform="matrix(1, 0, 0, -1, 0, 0)rotate(90)">
<g id="SVGRepo_bgCarrier" stroke-width="0">
<rect x="-2.4" y="-2.4" width="28.80" height="28.80" rx="0" fill="#000000" strokewidth="0"/>
</g>
<g id="SVGRepo_tracerCarrier" stroke-linecap="round" stroke-linejoin="round"/>
<g id="SVGRepo_iconCarrier"> <g data-name="Layer 2"> <g data-name="menu-arrow"> <rect width="24" height="24" transform="rotate(180 12 12)" opacity="0"/> <path d="M20.05 11H5.91l1.3-1.29a1 1 0 0 0-1.42-1.42l-3 3a1 1 0 0 0 0 1.42l3 3a1 1 0 0 0 1.42 0 1 1 0 0 0 0-1.42L5.91 13h14.14a1 1 0 0 0 .95-.95V12a1 1 0 0 0-.95-1z"/> <rect x="3" y="17" width="18" height="2" rx=".95" ry=".95"/> <rect x="3" y="5" width="18" height="2" rx=".95" ry=".95"/> </g> </g> </g>
</svg>